<mxfile host="65bd71144e">
    <diagram id="vL0mIEnQng74GZZDO9gL" name="개념">
        <mxGraphModel dx="1306" dy="614" grid="1" gridSize="10" guides="1" tooltips="1" connect="1" arrows="1" fold="1" page="1" pageScale="1" pageWidth="850" pageHeight="1100" math="0" shadow="0">
            <root>
                <mxCell id="0"/>
                <mxCell id="1" parent="0"/>
                <mxCell id="2VGova0VfoBbKM4k_YYO-2" value="&lt;h1 style=&quot;margin-top: 0px;&quot;&gt;개념적 설계&lt;/h1&gt;&lt;p&gt;ERD(Entitiy Relationship Diagram) 작성.&lt;/p&gt;&lt;p&gt;&lt;span style=&quot;background-color: transparent;&quot;&gt;데이터베이스 설계 이해도 높이기&lt;/span&gt;&lt;/p&gt;&lt;p&gt;&lt;br&gt;&lt;/p&gt;" style="text;html=1;whiteSpace=wrap;overflow=hidden;rounded=0;" parent="1" vertex="1">
                    <mxGeometry x="30" y="230" width="340" height="120" as="geometry"/>
                </mxCell>
                <mxCell id="2VGova0VfoBbKM4k_YYO-4" value="&lt;h1 style=&quot;margin-top: 0px;&quot;&gt;데이터베이스 설계 단계&lt;/h1&gt;&lt;p&gt;1. 요구사항 분석 - 요구 사항 정의서&lt;/p&gt;&lt;p&gt;2. 개념적 설계 - ERD&lt;/p&gt;&lt;p&gt;3. 논리적 설계 - 릴레이션 스키마&lt;/p&gt;&lt;p&gt;4. 물리적 설계 - 테이블 정의서, sql, script 작성&lt;/p&gt;&lt;p&gt;5. 구현 -&amp;nbsp; 테이블 작성&lt;/p&gt;&lt;p&gt;&lt;br&gt;&lt;/p&gt;" style="text;html=1;whiteSpace=wrap;overflow=hidden;rounded=0;" parent="1" vertex="1">
                    <mxGeometry x="30" y="20" width="340" height="190" as="geometry"/>
                </mxCell>
                <mxCell id="2VGova0VfoBbKM4k_YYO-5" value="&lt;font style=&quot;font-size: 13px;&quot;&gt;Entity&lt;/font&gt;" style="whiteSpace=wrap;html=1;align=center;" parent="1" vertex="1">
                    <mxGeometry x="30" y="420" width="100" height="40" as="geometry"/>
                </mxCell>
                <mxCell id="2VGova0VfoBbKM4k_YYO-6" value="&lt;font style=&quot;font-size: 13px;&quot;&gt;entity = 객체 = 테이블 = 릴레이션&lt;/font&gt;" style="text;html=1;align=center;verticalAlign=middle;whiteSpace=wrap;rounded=0;" parent="1" vertex="1">
                    <mxGeometry x="150" y="425" width="220" height="30" as="geometry"/>
                </mxCell>
                <mxCell id="2VGova0VfoBbKM4k_YYO-7" value="Relationship" style="shape=rhombus;perimeter=rhombusPerimeter;whiteSpace=wrap;html=1;align=center;" parent="1" vertex="1">
                    <mxGeometry x="20" y="500" width="120" height="60" as="geometry"/>
                </mxCell>
                <mxCell id="2VGova0VfoBbKM4k_YYO-8" value="&lt;font style=&quot;font-size: 13px;&quot;&gt;관계&lt;/font&gt;" style="text;html=1;align=center;verticalAlign=middle;whiteSpace=wrap;rounded=0;" parent="1" vertex="1">
                    <mxGeometry x="150" y="510" width="220" height="30" as="geometry"/>
                </mxCell>
                <mxCell id="2VGova0VfoBbKM4k_YYO-9" value="&lt;span style=&quot;border-bottom: 1px dotted&quot;&gt;Attribute&lt;/span&gt;" style="ellipse;whiteSpace=wrap;html=1;align=center;" parent="1" vertex="1">
                    <mxGeometry x="30" y="610" width="100" height="40" as="geometry"/>
                </mxCell>
                <mxCell id="2VGova0VfoBbKM4k_YYO-10" value="&lt;span style=&quot;font-size: 13px;&quot;&gt;속성.&lt;/span&gt;" style="text;html=1;align=center;verticalAlign=middle;whiteSpace=wrap;rounded=0;" parent="1" vertex="1">
                    <mxGeometry x="130" y="600" width="220" height="30" as="geometry"/>
                </mxCell>
                <mxCell id="2VGova0VfoBbKM4k_YYO-11" value="Attribute" style="ellipse;whiteSpace=wrap;html=1;align=center;fontStyle=4;" parent="1" vertex="1">
                    <mxGeometry x="30" y="700" width="100" height="40" as="geometry"/>
                </mxCell>
                <mxCell id="2VGova0VfoBbKM4k_YYO-12" value="&lt;span style=&quot;font-size: 13px;&quot;&gt;키( 기본키 ) 속성&lt;/span&gt;" style="text;html=1;align=center;verticalAlign=middle;whiteSpace=wrap;rounded=0;" parent="1" vertex="1">
                    <mxGeometry x="140" y="690" width="220" height="30" as="geometry"/>
                </mxCell>
                <mxCell id="2VGova0VfoBbKM4k_YYO-13" value="Attribute" style="ellipse;shape=doubleEllipse;margin=3;whiteSpace=wrap;html=1;align=center;" parent="1" vertex="1">
                    <mxGeometry x="30" y="780" width="100" height="40" as="geometry"/>
                </mxCell>
                <mxCell id="2VGova0VfoBbKM4k_YYO-15" value="&lt;span style=&quot;font-size: 13px;&quot;&gt;multi value( 예를 들면 취미 - 야구, 독서, 수영...)&lt;/span&gt;" style="text;html=1;align=center;verticalAlign=middle;whiteSpace=wrap;rounded=0;" parent="1" vertex="1">
                    <mxGeometry x="150" y="780" width="280" height="30" as="geometry"/>
                </mxCell>
                <mxCell id="2VGova0VfoBbKM4k_YYO-16" value="Relationship" style="shape=rhombus;perimeter=rhombusPerimeter;whiteSpace=wrap;html=1;align=center;" parent="1" vertex="1">
                    <mxGeometry x="240" y="880" width="120" height="60" as="geometry"/>
                </mxCell>
                <mxCell id="2VGova0VfoBbKM4k_YYO-17" value="&lt;span style=&quot;font-size: 13px;&quot;&gt;User&lt;/span&gt;" style="whiteSpace=wrap;html=1;align=center;" parent="1" vertex="1">
                    <mxGeometry x="30" y="890" width="100" height="40" as="geometry"/>
                </mxCell>
                <mxCell id="2VGova0VfoBbKM4k_YYO-18" value="&lt;font style=&quot;font-size: 13px;&quot;&gt;Profile&lt;/font&gt;" style="whiteSpace=wrap;html=1;align=center;" parent="1" vertex="1">
                    <mxGeometry x="470" y="890" width="100" height="40" as="geometry"/>
                </mxCell>
                <mxCell id="2VGova0VfoBbKM4k_YYO-21" value="" style="endArrow=none;html=1;rounded=0;entryX=0;entryY=0.5;entryDx=0;entryDy=0;exitX=1;exitY=0.5;exitDx=0;exitDy=0;" parent="1" source="2VGova0VfoBbKM4k_YYO-16" target="2VGova0VfoBbKM4k_YYO-18" edge="1">
                    <mxGeometry relative="1" as="geometry">
                        <mxPoint x="300" y="990" as="sourcePoint"/>
                        <mxPoint x="460" y="990" as="targetPoint"/>
                    </mxGeometry>
                </mxCell>
                <mxCell id="2VGova0VfoBbKM4k_YYO-22" value="1" style="resizable=0;html=1;whiteSpace=wrap;align=right;verticalAlign=bottom;" parent="2VGova0VfoBbKM4k_YYO-21" connectable="0" vertex="1">
                    <mxGeometry x="1" relative="1" as="geometry">
                        <mxPoint x="-10" y="-10" as="offset"/>
                    </mxGeometry>
                </mxCell>
                <mxCell id="2VGova0VfoBbKM4k_YYO-23" value="" style="endArrow=none;html=1;rounded=0;entryX=0;entryY=0.5;entryDx=0;entryDy=0;exitX=1;exitY=0.5;exitDx=0;exitDy=0;" parent="1" edge="1">
                    <mxGeometry relative="1" as="geometry">
                        <mxPoint x="130" y="909.66" as="sourcePoint"/>
                        <mxPoint x="240" y="909.66" as="targetPoint"/>
                    </mxGeometry>
                </mxCell>
                <mxCell id="2VGova0VfoBbKM4k_YYO-24" value="1" style="resizable=0;html=1;whiteSpace=wrap;align=right;verticalAlign=bottom;" parent="2VGova0VfoBbKM4k_YYO-23" connectable="0" vertex="1">
                    <mxGeometry x="1" relative="1" as="geometry">
                        <mxPoint x="-90" y="-10" as="offset"/>
                    </mxGeometry>
                </mxCell>
                <mxCell id="2VGova0VfoBbKM4k_YYO-25" value="Relationship" style="shape=rhombus;perimeter=rhombusPerimeter;whiteSpace=wrap;html=1;align=center;" parent="1" vertex="1">
                    <mxGeometry x="240" y="950" width="120" height="60" as="geometry"/>
                </mxCell>
                <mxCell id="2VGova0VfoBbKM4k_YYO-26" value="&lt;span style=&quot;font-size: 13px;&quot;&gt;학과&lt;/span&gt;" style="whiteSpace=wrap;html=1;align=center;" parent="1" vertex="1">
                    <mxGeometry x="30" y="960" width="100" height="40" as="geometry"/>
                </mxCell>
                <mxCell id="2VGova0VfoBbKM4k_YYO-27" value="&lt;font style=&quot;font-size: 13px;&quot;&gt;학생&lt;/font&gt;" style="whiteSpace=wrap;html=1;align=center;" parent="1" vertex="1">
                    <mxGeometry x="470" y="960" width="100" height="40" as="geometry"/>
                </mxCell>
                <mxCell id="2VGova0VfoBbKM4k_YYO-28" value="" style="endArrow=ERoneToMany;html=1;rounded=0;entryX=0;entryY=0.5;entryDx=0;entryDy=0;exitX=1;exitY=0.5;exitDx=0;exitDy=0;endFill=0;" parent="1" target="2VGova0VfoBbKM4k_YYO-27" edge="1">
                    <mxGeometry relative="1" as="geometry">
                        <mxPoint x="360" y="980" as="sourcePoint"/>
                        <mxPoint x="460" y="1060" as="targetPoint"/>
                    </mxGeometry>
                </mxCell>
                <mxCell id="2VGova0VfoBbKM4k_YYO-29" value="N" style="resizable=0;html=1;whiteSpace=wrap;align=right;verticalAlign=bottom;" parent="2VGova0VfoBbKM4k_YYO-28" connectable="0" vertex="1">
                    <mxGeometry x="1" relative="1" as="geometry">
                        <mxPoint x="-10" y="-10" as="offset"/>
                    </mxGeometry>
                </mxCell>
                <mxCell id="2VGova0VfoBbKM4k_YYO-30" value="" style="endArrow=none;html=1;rounded=0;entryX=0;entryY=0.5;entryDx=0;entryDy=0;exitX=1;exitY=0.5;exitDx=0;exitDy=0;" parent="1" edge="1">
                    <mxGeometry relative="1" as="geometry">
                        <mxPoint x="130" y="979.66" as="sourcePoint"/>
                        <mxPoint x="240" y="979.66" as="targetPoint"/>
                    </mxGeometry>
                </mxCell>
                <mxCell id="2VGova0VfoBbKM4k_YYO-31" value="1" style="resizable=0;html=1;whiteSpace=wrap;align=right;verticalAlign=bottom;" parent="2VGova0VfoBbKM4k_YYO-30" connectable="0" vertex="1">
                    <mxGeometry x="1" relative="1" as="geometry">
                        <mxPoint x="-90" y="-10" as="offset"/>
                    </mxGeometry>
                </mxCell>
                <mxCell id="2VGova0VfoBbKM4k_YYO-32" value="수강" style="shape=rhombus;perimeter=rhombusPerimeter;whiteSpace=wrap;html=1;align=center;" parent="1" vertex="1">
                    <mxGeometry x="240" y="1040" width="120" height="60" as="geometry"/>
                </mxCell>
                <mxCell id="2VGova0VfoBbKM4k_YYO-33" value="&lt;span style=&quot;font-size: 13px;&quot;&gt;학생&lt;/span&gt;" style="whiteSpace=wrap;html=1;align=center;" parent="1" vertex="1">
                    <mxGeometry x="30" y="1050" width="100" height="40" as="geometry"/>
                </mxCell>
                <mxCell id="2VGova0VfoBbKM4k_YYO-34" value="&lt;font style=&quot;font-size: 13px;&quot;&gt;과목&lt;/font&gt;" style="whiteSpace=wrap;html=1;align=center;" parent="1" vertex="1">
                    <mxGeometry x="470" y="1050" width="100" height="40" as="geometry"/>
                </mxCell>
                <mxCell id="2VGova0VfoBbKM4k_YYO-35" value="" style="endArrow=ERoneToMany;html=1;rounded=0;entryX=0;entryY=0.5;entryDx=0;entryDy=0;exitX=1;exitY=0.5;exitDx=0;exitDy=0;endFill=0;" parent="1" source="2VGova0VfoBbKM4k_YYO-32" target="2VGova0VfoBbKM4k_YYO-34" edge="1">
                    <mxGeometry relative="1" as="geometry">
                        <mxPoint x="300" y="1150" as="sourcePoint"/>
                        <mxPoint x="460" y="1150" as="targetPoint"/>
                    </mxGeometry>
                </mxCell>
                <mxCell id="2VGova0VfoBbKM4k_YYO-36" value="N" style="resizable=0;html=1;whiteSpace=wrap;align=right;verticalAlign=bottom;" parent="2VGova0VfoBbKM4k_YYO-35" connectable="0" vertex="1">
                    <mxGeometry x="1" relative="1" as="geometry">
                        <mxPoint x="-10" y="-10" as="offset"/>
                    </mxGeometry>
                </mxCell>
                <mxCell id="2VGova0VfoBbKM4k_YYO-37" value="" style="endArrow=none;html=1;rounded=0;entryX=0;entryY=0.5;entryDx=0;entryDy=0;exitX=1;exitY=0.5;exitDx=0;exitDy=0;startArrow=ERoneToMany;startFill=0;" parent="1" edge="1">
                    <mxGeometry relative="1" as="geometry">
                        <mxPoint x="130" y="1069.6599999999999" as="sourcePoint"/>
                        <mxPoint x="240" y="1069.6599999999999" as="targetPoint"/>
                    </mxGeometry>
                </mxCell>
                <mxCell id="2VGova0VfoBbKM4k_YYO-38" value="M" style="resizable=0;html=1;whiteSpace=wrap;align=right;verticalAlign=bottom;" parent="2VGova0VfoBbKM4k_YYO-37" connectable="0" vertex="1">
                    <mxGeometry x="1" relative="1" as="geometry">
                        <mxPoint x="-90" y="-10" as="offset"/>
                    </mxGeometry>
                </mxCell>
                <mxCell id="DDOi4Py8LgX1suethiPv-1" value="기본&amp;nbsp;&lt;span style=&quot;background-color: transparent;&quot;&gt;주소&lt;/span&gt;" style="ellipse;whiteSpace=wrap;html=1;align=center;" parent="1" vertex="1">
                    <mxGeometry x="520" y="505" width="100" height="40" as="geometry"/>
                </mxCell>
                <mxCell id="DDOi4Py8LgX1suethiPv-2" value="상세 주소" style="ellipse;whiteSpace=wrap;html=1;align=center;" parent="1" vertex="1">
                    <mxGeometry x="630" y="505" width="100" height="40" as="geometry"/>
                </mxCell>
                <mxCell id="DDOi4Py8LgX1suethiPv-3" value="배송지" style="ellipse;whiteSpace=wrap;html=1;align=center;" parent="1" vertex="1">
                    <mxGeometry x="580" y="560" width="100" height="40" as="geometry"/>
                </mxCell>
                <mxCell id="DDOi4Py8LgX1suethiPv-5" value="&lt;span style=&quot;font-size: 13px;&quot;&gt;복합속성&lt;/span&gt;" style="text;html=1;align=center;verticalAlign=middle;whiteSpace=wrap;rounded=0;" parent="1" vertex="1">
                    <mxGeometry x="510" y="460" width="220" height="30" as="geometry"/>
                </mxCell>
                <mxCell id="DDOi4Py8LgX1suethiPv-6" value="" style="endArrow=none;html=1;exitX=0.5;exitY=0;exitDx=0;exitDy=0;" parent="1" source="DDOi4Py8LgX1suethiPv-3" target="DDOi4Py8LgX1suethiPv-2" edge="1">
                    <mxGeometry width="50" height="50" relative="1" as="geometry">
                        <mxPoint x="640" y="590" as="sourcePoint"/>
                        <mxPoint x="680" y="540" as="targetPoint"/>
                    </mxGeometry>
                </mxCell>
                <mxCell id="DDOi4Py8LgX1suethiPv-9" value="" style="endArrow=none;html=1;entryX=0.59;entryY=0.917;entryDx=0;entryDy=0;entryPerimeter=0;" parent="1" edge="1">
                    <mxGeometry width="50" height="50" relative="1" as="geometry">
                        <mxPoint x="624" y="561.32" as="sourcePoint"/>
                        <mxPoint x="573" y="543.0000000000001" as="targetPoint"/>
                    </mxGeometry>
                </mxCell>
            </root>
        </mxGraphModel>
    </diagram>
    <diagram id="g1J-IyFpGUzMIVaC7Hms" name="한빛 ERD">
        <mxGraphModel dx="1536" dy="1822" grid="1" gridSize="10" guides="1" tooltips="1" connect="1" arrows="1" fold="1" page="1" pageScale="1" pageWidth="850" pageHeight="1100" math="0" shadow="0">
            <root>
                <mxCell id="0"/>
                <mxCell id="1" parent="0"/>
                <mxCell id="vN5ddP7P7fVaUogSbGo3-11" style="edgeStyle=none;html=1;entryX=1;entryY=0.5;entryDx=0;entryDy=0;endArrow=none;endFill=0;" edge="1" parent="1" target="vN5ddP7P7fVaUogSbGo3-4">
                    <mxGeometry relative="1" as="geometry">
                        <mxPoint x="260" y="190" as="sourcePoint"/>
                    </mxGeometry>
                </mxCell>
                <mxCell id="vN5ddP7P7fVaUogSbGo3-12" style="edgeStyle=none;html=1;entryX=1;entryY=0.5;entryDx=0;entryDy=0;endArrow=none;endFill=0;" edge="1" parent="1" source="vN5ddP7P7fVaUogSbGo3-1" target="vN5ddP7P7fVaUogSbGo3-6">
                    <mxGeometry relative="1" as="geometry">
                        <mxPoint x="260" y="200" as="sourcePoint"/>
                    </mxGeometry>
                </mxCell>
                <mxCell id="vN5ddP7P7fVaUogSbGo3-13" style="edgeStyle=none;html=1;entryX=1;entryY=0.5;entryDx=0;entryDy=0;exitX=0;exitY=0.5;exitDx=0;exitDy=0;endArrow=none;endFill=0;" edge="1" parent="1" source="vN5ddP7P7fVaUogSbGo3-1" target="vN5ddP7P7fVaUogSbGo3-8">
                    <mxGeometry relative="1" as="geometry"/>
                </mxCell>
                <mxCell id="vN5ddP7P7fVaUogSbGo3-14" style="edgeStyle=none;html=1;entryX=1;entryY=0.5;entryDx=0;entryDy=0;exitX=0;exitY=0.5;exitDx=0;exitDy=0;endArrow=none;endFill=0;" edge="1" parent="1" source="vN5ddP7P7fVaUogSbGo3-1" target="vN5ddP7P7fVaUogSbGo3-9">
                    <mxGeometry relative="1" as="geometry"/>
                </mxCell>
                <mxCell id="nP_JeVzL_yWjLQ4GBT5M-10" style="edgeStyle=none;html=1;entryX=0;entryY=0.5;entryDx=0;entryDy=0;" edge="1" parent="1" source="vN5ddP7P7fVaUogSbGo3-1" target="vN5ddP7P7fVaUogSbGo3-15">
                    <mxGeometry relative="1" as="geometry"/>
                </mxCell>
                <mxCell id="vN5ddP7P7fVaUogSbGo3-1" value="회원" style="whiteSpace=wrap;html=1;align=center;" vertex="1" parent="1">
                    <mxGeometry x="260" y="170" width="100" height="40" as="geometry"/>
                </mxCell>
                <mxCell id="vN5ddP7P7fVaUogSbGo3-3" value="아이디" style="ellipse;whiteSpace=wrap;html=1;align=center;fontStyle=4;" vertex="1" parent="1">
                    <mxGeometry x="10" y="30" width="100" height="40" as="geometry"/>
                </mxCell>
                <mxCell id="vN5ddP7P7fVaUogSbGo3-4" value="비밀번호" style="ellipse;whiteSpace=wrap;html=1;align=center;" vertex="1" parent="1">
                    <mxGeometry x="10" y="90" width="100" height="40" as="geometry"/>
                </mxCell>
                <mxCell id="vN5ddP7P7fVaUogSbGo3-6" value="이름" style="ellipse;whiteSpace=wrap;html=1;align=center;" vertex="1" parent="1">
                    <mxGeometry x="10" y="150" width="100" height="40" as="geometry"/>
                </mxCell>
                <mxCell id="vN5ddP7P7fVaUogSbGo3-8" value="나이" style="ellipse;whiteSpace=wrap;html=1;align=center;" vertex="1" parent="1">
                    <mxGeometry x="10" y="210" width="100" height="40" as="geometry"/>
                </mxCell>
                <mxCell id="vN5ddP7P7fVaUogSbGo3-9" value="직업" style="ellipse;whiteSpace=wrap;html=1;align=center;" vertex="1" parent="1">
                    <mxGeometry x="10" y="270" width="100" height="40" as="geometry"/>
                </mxCell>
                <mxCell id="vN5ddP7P7fVaUogSbGo3-10" style="edgeStyle=none;html=1;entryX=0.992;entryY=0.717;entryDx=0;entryDy=0;entryPerimeter=0;endArrow=none;endFill=0;" edge="1" parent="1" target="vN5ddP7P7fVaUogSbGo3-3">
                    <mxGeometry relative="1" as="geometry">
                        <mxPoint x="260" y="190" as="sourcePoint"/>
                    </mxGeometry>
                </mxCell>
                <mxCell id="vN5ddP7P7fVaUogSbGo3-27" style="edgeStyle=none;html=1;entryX=0;entryY=0.5;entryDx=0;entryDy=0;startArrow=none;startFill=0;endArrow=none;endFill=0;exitX=1;exitY=0.5;exitDx=0;exitDy=0;" edge="1" parent="1" source="vN5ddP7P7fVaUogSbGo3-15" target="vN5ddP7P7fVaUogSbGo3-17">
                    <mxGeometry relative="1" as="geometry">
                        <mxPoint x="780" y="190" as="sourcePoint"/>
                        <mxPoint x="869.9999999999998" y="46" as="targetPoint"/>
                    </mxGeometry>
                </mxCell>
                <mxCell id="vN5ddP7P7fVaUogSbGo3-28" style="edgeStyle=none;html=1;entryX=0;entryY=0.5;entryDx=0;entryDy=0;exitX=0.998;exitY=0.422;exitDx=0;exitDy=0;exitPerimeter=0;startArrow=none;startFill=0;endArrow=none;endFill=0;" edge="1" parent="1" source="vN5ddP7P7fVaUogSbGo3-15" target="vN5ddP7P7fVaUogSbGo3-16">
                    <mxGeometry relative="1" as="geometry"/>
                </mxCell>
                <mxCell id="vN5ddP7P7fVaUogSbGo3-29" style="edgeStyle=none;html=1;entryX=0;entryY=0.5;entryDx=0;entryDy=0;startArrow=none;startFill=0;endArrow=none;endFill=0;exitX=1;exitY=0.5;exitDx=0;exitDy=0;" edge="1" parent="1" source="vN5ddP7P7fVaUogSbGo3-15" target="vN5ddP7P7fVaUogSbGo3-19">
                    <mxGeometry relative="1" as="geometry"/>
                </mxCell>
                <mxCell id="vN5ddP7P7fVaUogSbGo3-30" style="edgeStyle=none;html=1;startArrow=none;startFill=0;endArrow=none;endFill=0;entryX=0;entryY=0.5;entryDx=0;entryDy=0;exitX=1;exitY=0.5;exitDx=0;exitDy=0;" edge="1" parent="1" source="vN5ddP7P7fVaUogSbGo3-15" target="vN5ddP7P7fVaUogSbGo3-22">
                    <mxGeometry relative="1" as="geometry">
                        <mxPoint x="800" y="200" as="sourcePoint"/>
                        <mxPoint x="870" y="230" as="targetPoint"/>
                    </mxGeometry>
                </mxCell>
                <mxCell id="nP_JeVzL_yWjLQ4GBT5M-1" style="edgeStyle=none;html=1;exitX=1;exitY=0.5;exitDx=0;exitDy=0;" edge="1" parent="1" source="vN5ddP7P7fVaUogSbGo3-15">
                    <mxGeometry relative="1" as="geometry">
                        <mxPoint x="780" y="190" as="targetPoint"/>
                    </mxGeometry>
                </mxCell>
                <mxCell id="vN5ddP7P7fVaUogSbGo3-15" value="상품" style="whiteSpace=wrap;html=1;align=center;" vertex="1" parent="1">
                    <mxGeometry x="680" y="170" width="100" height="40" as="geometry"/>
                </mxCell>
                <mxCell id="vN5ddP7P7fVaUogSbGo3-16" value="상품명" style="ellipse;whiteSpace=wrap;html=1;align=center;" vertex="1" parent="1">
                    <mxGeometry x="870" y="70" width="100" height="40" as="geometry"/>
                </mxCell>
                <mxCell id="vN5ddP7P7fVaUogSbGo3-17" value="상품번호" style="ellipse;whiteSpace=wrap;html=1;align=center;fontStyle=4;" vertex="1" parent="1">
                    <mxGeometry x="870" y="10" width="100" height="40" as="geometry"/>
                </mxCell>
                <mxCell id="vN5ddP7P7fVaUogSbGo3-19" value="재고량" style="ellipse;whiteSpace=wrap;html=1;align=center;" vertex="1" parent="1">
                    <mxGeometry x="870" y="170" width="100" height="40" as="geometry"/>
                </mxCell>
                <mxCell id="vN5ddP7P7fVaUogSbGo3-22" value="단가" style="ellipse;whiteSpace=wrap;html=1;align=center;" vertex="1" parent="1">
                    <mxGeometry x="870" y="220" width="100" height="40" as="geometry"/>
                </mxCell>
                <mxCell id="vN5ddP7P7fVaUogSbGo3-31" style="edgeStyle=none;html=1;entryX=0;entryY=0.5;entryDx=0;entryDy=0;exitX=1;exitY=0.5;exitDx=0;exitDy=0;exitPerimeter=0;startArrow=none;startFill=0;endArrow=none;endFill=0;" edge="1" parent="1" source="vN5ddP7P7fVaUogSbGo3-35" target="vN5ddP7P7fVaUogSbGo3-37">
                    <mxGeometry relative="1" as="geometry">
                        <mxPoint x="750" y="527.9999999999999" as="sourcePoint"/>
                        <mxPoint x="839.9999999999998" y="397.9999999999999" as="targetPoint"/>
                    </mxGeometry>
                </mxCell>
                <mxCell id="vN5ddP7P7fVaUogSbGo3-32" style="edgeStyle=none;html=1;entryX=0;entryY=0.5;entryDx=0;entryDy=0;exitX=1;exitY=0.5;exitDx=0;exitDy=0;endArrow=none;endFill=0;" edge="1" parent="1" source="vN5ddP7P7fVaUogSbGo3-35" target="vN5ddP7P7fVaUogSbGo3-36">
                    <mxGeometry relative="1" as="geometry">
                        <mxPoint x="750" y="530" as="sourcePoint"/>
                    </mxGeometry>
                </mxCell>
                <mxCell id="vN5ddP7P7fVaUogSbGo3-33" style="edgeStyle=none;html=1;entryX=0;entryY=0.5;entryDx=0;entryDy=0;exitX=1;exitY=0.5;exitDx=0;exitDy=0;exitPerimeter=0;endArrow=none;endFill=0;" edge="1" parent="1" source="vN5ddP7P7fVaUogSbGo3-35" target="vN5ddP7P7fVaUogSbGo3-38">
                    <mxGeometry relative="1" as="geometry"/>
                </mxCell>
                <mxCell id="vN5ddP7P7fVaUogSbGo3-34" style="edgeStyle=none;html=1;entryX=0;entryY=0.5;entryDx=0;entryDy=0;exitX=1;exitY=0.5;exitDx=0;exitDy=0;endArrow=none;endFill=0;" edge="1" parent="1" source="vN5ddP7P7fVaUogSbGo3-35" target="vN5ddP7P7fVaUogSbGo3-39">
                    <mxGeometry relative="1" as="geometry">
                        <Array as="points"/>
                    </mxGeometry>
                </mxCell>
                <mxCell id="vN5ddP7P7fVaUogSbGo3-42" style="edgeStyle=none;html=1;entryX=0;entryY=0.5;entryDx=0;entryDy=0;exitX=1;exitY=0.5;exitDx=0;exitDy=0;endArrow=none;endFill=0;" edge="1" parent="1" source="vN5ddP7P7fVaUogSbGo3-35" target="vN5ddP7P7fVaUogSbGo3-40">
                    <mxGeometry relative="1" as="geometry"/>
                </mxCell>
                <mxCell id="vN5ddP7P7fVaUogSbGo3-36" value="업체명" style="ellipse;whiteSpace=wrap;html=1;align=center;" vertex="1" parent="1">
                    <mxGeometry x="860" y="480" width="100" height="40" as="geometry"/>
                </mxCell>
                <mxCell id="vN5ddP7P7fVaUogSbGo3-37" value="업체코드" style="ellipse;whiteSpace=wrap;html=1;align=center;fontStyle=4;" vertex="1" parent="1">
                    <mxGeometry x="860" y="420" width="100" height="40" as="geometry"/>
                </mxCell>
                <mxCell id="vN5ddP7P7fVaUogSbGo3-38" value="전화번호" style="ellipse;whiteSpace=wrap;html=1;align=center;" vertex="1" parent="1">
                    <mxGeometry x="860" y="540" width="100" height="40" as="geometry"/>
                </mxCell>
                <mxCell id="vN5ddP7P7fVaUogSbGo3-39" value="위치" style="ellipse;whiteSpace=wrap;html=1;align=center;" vertex="1" parent="1">
                    <mxGeometry x="860" y="600" width="100" height="40" as="geometry"/>
                </mxCell>
                <mxCell id="vN5ddP7P7fVaUogSbGo3-40" value="담당자" style="ellipse;whiteSpace=wrap;html=1;align=center;" vertex="1" parent="1">
                    <mxGeometry x="860" y="660" width="100" height="40" as="geometry"/>
                </mxCell>
                <mxCell id="vN5ddP7P7fVaUogSbGo3-43" style="edgeStyle=none;html=1;entryX=1;entryY=0.5;entryDx=0;entryDy=0;exitX=0;exitY=0.5;exitDx=0;exitDy=0;endArrow=none;endFill=0;" edge="1" parent="1" source="vN5ddP7P7fVaUogSbGo3-47" target="vN5ddP7P7fVaUogSbGo3-50">
                    <mxGeometry relative="1" as="geometry">
                        <mxPoint x="140" y="470" as="targetPoint"/>
                    </mxGeometry>
                </mxCell>
                <mxCell id="vN5ddP7P7fVaUogSbGo3-44" style="edgeStyle=none;html=1;entryX=1;entryY=0.5;entryDx=0;entryDy=0;endArrow=none;endFill=0;exitX=0;exitY=0.5;exitDx=0;exitDy=0;" edge="1" parent="1" source="vN5ddP7P7fVaUogSbGo3-47" target="vN5ddP7P7fVaUogSbGo3-51">
                    <mxGeometry relative="1" as="geometry">
                        <mxPoint x="260" y="520" as="sourcePoint"/>
                        <mxPoint x="140" y="540" as="targetPoint"/>
                    </mxGeometry>
                </mxCell>
                <mxCell id="vN5ddP7P7fVaUogSbGo3-45" style="edgeStyle=none;html=1;entryX=1;entryY=0.5;entryDx=0;entryDy=0;exitX=0;exitY=0.5;exitDx=0;exitDy=0;endArrow=none;endFill=0;" edge="1" parent="1" source="vN5ddP7P7fVaUogSbGo3-47" target="vN5ddP7P7fVaUogSbGo3-52">
                    <mxGeometry relative="1" as="geometry">
                        <mxPoint x="140" y="600" as="targetPoint"/>
                    </mxGeometry>
                </mxCell>
                <mxCell id="vN5ddP7P7fVaUogSbGo3-47" value="게시글" style="whiteSpace=wrap;html=1;align=center;" vertex="1" parent="1">
                    <mxGeometry x="260" y="500" width="100" height="40" as="geometry"/>
                </mxCell>
                <mxCell id="vN5ddP7P7fVaUogSbGo3-48" value="글번호" style="ellipse;whiteSpace=wrap;html=1;align=center;fontStyle=4;" vertex="1" parent="1">
                    <mxGeometry x="30" y="400" width="100" height="40" as="geometry"/>
                </mxCell>
                <mxCell id="vN5ddP7P7fVaUogSbGo3-49" style="edgeStyle=none;html=1;entryX=0.992;entryY=0.717;entryDx=0;entryDy=0;entryPerimeter=0;exitX=0;exitY=0.5;exitDx=0;exitDy=0;endArrow=none;endFill=0;" edge="1" parent="1" source="vN5ddP7P7fVaUogSbGo3-47" target="vN5ddP7P7fVaUogSbGo3-48">
                    <mxGeometry relative="1" as="geometry">
                        <mxPoint x="240" y="540" as="sourcePoint"/>
                    </mxGeometry>
                </mxCell>
                <mxCell id="vN5ddP7P7fVaUogSbGo3-50" value="제목" style="ellipse;whiteSpace=wrap;html=1;align=center;" vertex="1" parent="1">
                    <mxGeometry x="30" y="450" width="100" height="40" as="geometry"/>
                </mxCell>
                <mxCell id="vN5ddP7P7fVaUogSbGo3-51" value="내용" style="ellipse;whiteSpace=wrap;html=1;align=center;" vertex="1" parent="1">
                    <mxGeometry x="30" y="510" width="100" height="40" as="geometry"/>
                </mxCell>
                <mxCell id="nP_JeVzL_yWjLQ4GBT5M-5" style="edgeStyle=none;html=1;" edge="1" parent="1" source="vN5ddP7P7fVaUogSbGo3-52">
                    <mxGeometry relative="1" as="geometry">
                        <mxPoint x="130" y="600" as="targetPoint"/>
                    </mxGeometry>
                </mxCell>
                <mxCell id="vN5ddP7P7fVaUogSbGo3-52" value="작성일" style="ellipse;whiteSpace=wrap;html=1;align=center;rotation=0;" vertex="1" parent="1">
                    <mxGeometry x="30" y="570" width="100" height="40" as="geometry"/>
                </mxCell>
                <mxCell id="mUkkJ6AbIYquF6Y3L6sG-1" value="주문" style="shape=rhombus;perimeter=rhombusPerimeter;whiteSpace=wrap;html=1;align=center;" vertex="1" parent="1">
                    <mxGeometry x="460" y="160" width="120" height="60" as="geometry"/>
                </mxCell>
                <mxCell id="nP_JeVzL_yWjLQ4GBT5M-14" style="edgeStyle=none;html=1;entryX=0.5;entryY=0;entryDx=0;entryDy=0;endArrow=none;endFill=0;" edge="1" parent="1" source="mUkkJ6AbIYquF6Y3L6sG-7" target="vN5ddP7P7fVaUogSbGo3-35">
                    <mxGeometry relative="1" as="geometry"/>
                </mxCell>
                <mxCell id="mUkkJ6AbIYquF6Y3L6sG-7" value="공급" style="shape=rhombus;perimeter=rhombusPerimeter;whiteSpace=wrap;html=1;align=center;" vertex="1" parent="1">
                    <mxGeometry x="670" y="300" width="120" height="60" as="geometry"/>
                </mxCell>
                <mxCell id="mUkkJ6AbIYquF6Y3L6sG-25" value="" style="edgeStyle=none;html=1;entryX=0;entryY=0.5;entryDx=0;entryDy=0;" edge="1" parent="1" target="vN5ddP7P7fVaUogSbGo3-35">
                    <mxGeometry relative="1" as="geometry">
                        <mxPoint x="750" y="530" as="sourcePoint"/>
                        <mxPoint x="840" y="460" as="targetPoint"/>
                    </mxGeometry>
                </mxCell>
                <mxCell id="vN5ddP7P7fVaUogSbGo3-35" value="재조업체" style="whiteSpace=wrap;html=1;align=center;" vertex="1" parent="1">
                    <mxGeometry x="680" y="530" width="100" height="40" as="geometry"/>
                </mxCell>
                <mxCell id="mUkkJ6AbIYquF6Y3L6sG-27" value="" style="shape=link;html=1;rounded=0;entryX=0.5;entryY=1;entryDx=0;entryDy=0;" edge="1" parent="1" source="mUkkJ6AbIYquF6Y3L6sG-7" target="vN5ddP7P7fVaUogSbGo3-15">
                    <mxGeometry relative="1" as="geometry">
                        <mxPoint x="610" y="270" as="sourcePoint"/>
                        <mxPoint x="770" y="270" as="targetPoint"/>
                    </mxGeometry>
                </mxCell>
                <mxCell id="mUkkJ6AbIYquF6Y3L6sG-28" value="N" style="resizable=0;html=1;whiteSpace=wrap;align=right;verticalAlign=bottom;" connectable="0" vertex="1" parent="mUkkJ6AbIYquF6Y3L6sG-27">
                    <mxGeometry x="1" relative="1" as="geometry">
                        <mxPoint x="-10" y="20" as="offset"/>
                    </mxGeometry>
                </mxCell>
                <mxCell id="mUkkJ6AbIYquF6Y3L6sG-41" value="" style="endArrow=none;html=1;rounded=0;entryX=0.5;entryY=0;entryDx=0;entryDy=0;exitX=0.5;exitY=1;exitDx=0;exitDy=0;" edge="1" parent="1" source="vN5ddP7P7fVaUogSbGo3-1" target="vN5ddP7P7fVaUogSbGo3-47">
                    <mxGeometry relative="1" as="geometry">
                        <mxPoint x="310" y="220" as="sourcePoint"/>
                        <mxPoint x="470" y="340" as="targetPoint"/>
                    </mxGeometry>
                </mxCell>
                <mxCell id="mUkkJ6AbIYquF6Y3L6sG-43" value="&lt;span style=&quot;color: rgb(0, 0, 0);&quot;&gt;1&lt;/span&gt;" style="resizable=0;html=1;whiteSpace=wrap;align=right;verticalAlign=bottom;direction=south;" connectable="0" vertex="1" parent="1">
                    <mxGeometry x="430" y="280" as="geometry">
                        <mxPoint x="-104" y="-43" as="offset"/>
                    </mxGeometry>
                </mxCell>
                <mxCell id="mUkkJ6AbIYquF6Y3L6sG-47" value="공급일자" style="ellipse;whiteSpace=wrap;html=1;align=center;" vertex="1" parent="1">
                    <mxGeometry x="860" y="290" width="100" height="40" as="geometry"/>
                </mxCell>
                <mxCell id="mUkkJ6AbIYquF6Y3L6sG-48" value="공급량" style="ellipse;whiteSpace=wrap;html=1;align=center;" vertex="1" parent="1">
                    <mxGeometry x="860" y="340" width="100" height="40" as="geometry"/>
                </mxCell>
                <mxCell id="mUkkJ6AbIYquF6Y3L6sG-50" value="주문수량" style="ellipse;whiteSpace=wrap;html=1;align=center;" vertex="1" parent="1">
                    <mxGeometry x="410" y="50" width="100" height="40" as="geometry"/>
                </mxCell>
                <mxCell id="mUkkJ6AbIYquF6Y3L6sG-51" value="주문번호" style="ellipse;whiteSpace=wrap;html=1;align=center;fontStyle=4;" vertex="1" parent="1">
                    <mxGeometry x="390" y="100" width="100" height="40" as="geometry"/>
                </mxCell>
                <mxCell id="mUkkJ6AbIYquF6Y3L6sG-52" value="배송지" style="ellipse;whiteSpace=wrap;html=1;align=center;" vertex="1" parent="1">
                    <mxGeometry x="530" y="50" width="100" height="40" as="geometry"/>
                </mxCell>
                <mxCell id="mUkkJ6AbIYquF6Y3L6sG-53" value="주문일자" style="ellipse;whiteSpace=wrap;html=1;align=center;" vertex="1" parent="1">
                    <mxGeometry x="550" y="110" width="100" height="40" as="geometry"/>
                </mxCell>
                <mxCell id="mUkkJ6AbIYquF6Y3L6sG-54" value="" style="endArrow=none;html=1;rounded=0;entryX=1;entryY=0.5;entryDx=0;entryDy=0;exitX=0;exitY=0.5;exitDx=0;exitDy=0;" edge="1" parent="1" source="mUkkJ6AbIYquF6Y3L6sG-47" target="mUkkJ6AbIYquF6Y3L6sG-7">
                    <mxGeometry relative="1" as="geometry">
                        <mxPoint x="790" y="170" as="sourcePoint"/>
                        <mxPoint x="790" y="450" as="targetPoint"/>
                    </mxGeometry>
                </mxCell>
                <mxCell id="mUkkJ6AbIYquF6Y3L6sG-55" value="" style="endArrow=none;html=1;rounded=0;exitX=0;exitY=0.5;exitDx=0;exitDy=0;entryX=1;entryY=0.5;entryDx=0;entryDy=0;" edge="1" parent="1" source="mUkkJ6AbIYquF6Y3L6sG-48" target="mUkkJ6AbIYquF6Y3L6sG-7">
                    <mxGeometry relative="1" as="geometry">
                        <mxPoint x="870" y="320" as="sourcePoint"/>
                        <mxPoint x="790" y="360" as="targetPoint"/>
                    </mxGeometry>
                </mxCell>
                <mxCell id="mUkkJ6AbIYquF6Y3L6sG-56" value="" style="endArrow=none;html=1;rounded=0;exitX=0.043;exitY=0.623;exitDx=0;exitDy=0;exitPerimeter=0;entryX=0.5;entryY=0;entryDx=0;entryDy=0;" edge="1" parent="1" source="mUkkJ6AbIYquF6Y3L6sG-53" target="mUkkJ6AbIYquF6Y3L6sG-1">
                    <mxGeometry relative="1" as="geometry">
                        <mxPoint x="550" y="130" as="sourcePoint"/>
                        <mxPoint x="520" y="160" as="targetPoint"/>
                    </mxGeometry>
                </mxCell>
                <mxCell id="mUkkJ6AbIYquF6Y3L6sG-57" value="" style="endArrow=none;html=1;rounded=0;exitX=0.047;exitY=0.816;exitDx=0;exitDy=0;exitPerimeter=0;entryX=0.5;entryY=0;entryDx=0;entryDy=0;" edge="1" parent="1" source="mUkkJ6AbIYquF6Y3L6sG-52" target="mUkkJ6AbIYquF6Y3L6sG-1">
                    <mxGeometry relative="1" as="geometry">
                        <mxPoint x="549.9972086751468" y="82.09098539473271" as="sourcePoint"/>
                        <mxPoint x="520" y="160" as="targetPoint"/>
                    </mxGeometry>
                </mxCell>
                <mxCell id="mUkkJ6AbIYquF6Y3L6sG-58" value="" style="endArrow=none;html=1;rounded=0;exitX=1;exitY=1;exitDx=0;exitDy=0;entryX=0.5;entryY=0;entryDx=0;entryDy=0;" edge="1" parent="1" source="mUkkJ6AbIYquF6Y3L6sG-50" target="mUkkJ6AbIYquF6Y3L6sG-1">
                    <mxGeometry relative="1" as="geometry">
                        <mxPoint x="560" y="100" as="sourcePoint"/>
                        <mxPoint x="520" y="160" as="targetPoint"/>
                    </mxGeometry>
                </mxCell>
                <mxCell id="mUkkJ6AbIYquF6Y3L6sG-59" value="" style="endArrow=none;html=1;rounded=0;exitX=1;exitY=1;exitDx=0;exitDy=0;entryX=0.5;entryY=0;entryDx=0;entryDy=0;" edge="1" parent="1" source="mUkkJ6AbIYquF6Y3L6sG-51" target="mUkkJ6AbIYquF6Y3L6sG-1">
                    <mxGeometry relative="1" as="geometry">
                        <mxPoint x="450" y="124" as="sourcePoint"/>
                        <mxPoint x="520" y="160" as="targetPoint"/>
                    </mxGeometry>
                </mxCell>
                <mxCell id="oO3lkvGROyK_dfSYFruv-1" value="N" style="resizable=0;html=1;whiteSpace=wrap;align=left;verticalAlign=bottom;" connectable="0" vertex="1" parent="1">
                    <mxGeometry x="320" y="490" as="geometry"/>
                </mxCell>
                <mxCell id="vQjHVLkmPHZhNnHo40M9-5" style="edgeStyle=none;html=1;entryX=0.5;entryY=0;entryDx=0;entryDy=0;endArrow=none;endFill=0;startArrow=none;startFill=0;exitX=0.665;exitY=0.894;exitDx=0;exitDy=0;exitPerimeter=0;" edge="1" parent="1" source="vQjHVLkmPHZhNnHo40M9-1" target="mUkkJ6AbIYquF6Y3L6sG-52">
                    <mxGeometry relative="1" as="geometry"/>
                </mxCell>
                <mxCell id="vQjHVLkmPHZhNnHo40M9-1" value="기본&amp;nbsp;&lt;span style=&quot;background-color: transparent;&quot;&gt;주소&lt;/span&gt;" style="ellipse;whiteSpace=wrap;html=1;align=center;" vertex="1" parent="1">
                    <mxGeometry x="470" y="-10" width="100" height="40" as="geometry"/>
                </mxCell>
                <mxCell id="vQjHVLkmPHZhNnHo40M9-8" style="edgeStyle=none;html=1;exitX=0;exitY=1;exitDx=0;exitDy=0;entryX=0.5;entryY=0;entryDx=0;entryDy=0;endArrow=none;endFill=0;startArrow=none;startFill=0;" edge="1" parent="1" source="vQjHVLkmPHZhNnHo40M9-2" target="mUkkJ6AbIYquF6Y3L6sG-52">
                    <mxGeometry relative="1" as="geometry"/>
                </mxCell>
                <mxCell id="vQjHVLkmPHZhNnHo40M9-2" value="상세 주소" style="ellipse;whiteSpace=wrap;html=1;align=center;" vertex="1" parent="1">
                    <mxGeometry x="590" y="-10" width="100" height="40" as="geometry"/>
                </mxCell>
                <mxCell id="PHcWgNx3p2XDGPiaG4Kb-1" value="제품색상" style="ellipse;shape=doubleEllipse;margin=3;whiteSpace=wrap;html=1;align=center;" vertex="1" parent="1">
                    <mxGeometry x="870" y="120" width="100" height="40" as="geometry"/>
                </mxCell>
                <mxCell id="G-1TfZZAg7PScyE1Kugw-1" style="edgeStyle=none;html=1;entryX=0;entryY=0.5;entryDx=0;entryDy=0;startArrow=none;startFill=0;endArrow=none;endFill=0;exitX=1;exitY=0.5;exitDx=0;exitDy=0;" edge="1" parent="1" source="vN5ddP7P7fVaUogSbGo3-15" target="PHcWgNx3p2XDGPiaG4Kb-1">
                    <mxGeometry relative="1" as="geometry">
                        <mxPoint x="790" y="166" as="sourcePoint"/>
                        <mxPoint x="880" y="160" as="targetPoint"/>
                    </mxGeometry>
                </mxCell>
                <mxCell id="mUkkJ6AbIYquF6Y3L6sG-34" value="작성" style="shape=rhombus;perimeter=rhombusPerimeter;whiteSpace=wrap;html=1;align=center;" vertex="1" parent="1">
                    <mxGeometry x="250" y="340" width="120" height="60" as="geometry"/>
                </mxCell>
            </root>
        </mxGraphModel>
    </diagram>
    <diagram id="ktl76VQUJB66wP2kUgdX" name="한빛 릴레이션">
        <mxGraphModel dx="1306" dy="614" grid="1" gridSize="10" guides="1" tooltips="1" connect="1" arrows="1" fold="1" page="1" pageScale="1" pageWidth="850" pageHeight="1100" math="0" shadow="0">
            <root>
                <mxCell id="0"/>
                <mxCell id="1" parent="0"/>
                <mxCell id="OQOjHAyYXP0yUHxSc0j6-1" value="&lt;h1 style=&quot;margin-top: 0px;&quot;&gt;릴레이션 스키마 (관계데이터모델)&lt;/h1&gt;&lt;p&gt;1. 모든 객체는 릴레이션으로 변환한다&lt;/p&gt;&lt;p&gt;2. 다대다 관계는 릴레이션으로 변환한다.&lt;/p&gt;&lt;p&gt;3. 일대다 관계는 외래키로 표현한다.&lt;/p&gt;&lt;p&gt;4. 일대일 고나계는 외래키로 표현한다&lt;/p&gt;&lt;p&gt;5. 다중값( multi value) 속성은 릴레이션으로 변환한다.&lt;/p&gt;" style="text;html=1;whiteSpace=wrap;overflow=hidden;rounded=0;" parent="1" vertex="1">
                    <mxGeometry x="20" y="20" width="380" height="180" as="geometry"/>
                </mxCell>
                <mxCell id="OQOjHAyYXP0yUHxSc0j6-2" value="회원" style="shape=table;startSize=30;container=1;collapsible=1;childLayout=tableLayout;fixedRows=1;rowLines=0;fontStyle=1;align=center;resizeLast=1;html=1;" parent="1" vertex="1">
                    <mxGeometry x="30" y="260" width="180" height="180" as="geometry"/>
                </mxCell>
                <mxCell id="OQOjHAyYXP0yUHxSc0j6-3" value="" style="shape=tableRow;horizontal=0;startSize=0;swimlaneHead=0;swimlaneBody=0;fillColor=none;collapsible=0;dropTarget=0;points=[[0,0.5],[1,0.5]];portConstraint=eastwest;top=0;left=0;right=0;bottom=1;" parent="OQOjHAyYXP0yUHxSc0j6-2" vertex="1">
                    <mxGeometry y="30" width="180" height="30" as="geometry"/>
                </mxCell>
                <mxCell id="OQOjHAyYXP0yUHxSc0j6-4" value="PK" style="shape=partialRectangle;connectable=0;fillColor=none;top=0;left=0;bottom=0;right=0;fontStyle=1;overflow=hidden;whiteSpace=wrap;html=1;" parent="OQOjHAyYXP0yUHxSc0j6-3" vertex="1">
                    <mxGeometry width="29.999999999999886" height="30" as="geometry">
                        <mxRectangle width="29.999999999999886" height="30" as="alternateBounds"/>
                    </mxGeometry>
                </mxCell>
                <mxCell id="OQOjHAyYXP0yUHxSc0j6-5" value="ID" style="shape=partialRectangle;connectable=0;fillColor=none;top=0;left=0;bottom=0;right=0;align=left;spacingLeft=6;fontStyle=5;overflow=hidden;whiteSpace=wrap;html=1;" parent="OQOjHAyYXP0yUHxSc0j6-3" vertex="1">
                    <mxGeometry x="29.999999999999886" width="150.0000000000001" height="30" as="geometry">
                        <mxRectangle width="150.0000000000001" height="30" as="alternateBounds"/>
                    </mxGeometry>
                </mxCell>
                <mxCell id="OQOjHAyYXP0yUHxSc0j6-6" value="" style="shape=tableRow;horizontal=0;startSize=0;swimlaneHead=0;swimlaneBody=0;fillColor=none;collapsible=0;dropTarget=0;points=[[0,0.5],[1,0.5]];portConstraint=eastwest;top=0;left=0;right=0;bottom=0;" parent="OQOjHAyYXP0yUHxSc0j6-2" vertex="1">
                    <mxGeometry y="60" width="180" height="30" as="geometry"/>
                </mxCell>
                <mxCell id="OQOjHAyYXP0yUHxSc0j6-7" value="" style="shape=partialRectangle;connectable=0;fillColor=none;top=0;left=0;bottom=0;right=0;editable=1;overflow=hidden;whiteSpace=wrap;html=1;" parent="OQOjHAyYXP0yUHxSc0j6-6" vertex="1">
                    <mxGeometry width="29.999999999999886" height="30" as="geometry">
                        <mxRectangle width="29.999999999999886" height="30" as="alternateBounds"/>
                    </mxGeometry>
                </mxCell>
                <mxCell id="OQOjHAyYXP0yUHxSc0j6-8" value="비밀번호" style="shape=partialRectangle;connectable=0;fillColor=none;top=0;left=0;bottom=0;right=0;align=left;spacingLeft=6;overflow=hidden;whiteSpace=wrap;html=1;" parent="OQOjHAyYXP0yUHxSc0j6-6" vertex="1">
                    <mxGeometry x="29.999999999999886" width="150.0000000000001" height="30" as="geometry">
                        <mxRectangle width="150.0000000000001" height="30" as="alternateBounds"/>
                    </mxGeometry>
                </mxCell>
                <mxCell id="OQOjHAyYXP0yUHxSc0j6-9" value="" style="shape=tableRow;horizontal=0;startSize=0;swimlaneHead=0;swimlaneBody=0;fillColor=none;collapsible=0;dropTarget=0;points=[[0,0.5],[1,0.5]];portConstraint=eastwest;top=0;left=0;right=0;bottom=0;" parent="OQOjHAyYXP0yUHxSc0j6-2" vertex="1">
                    <mxGeometry y="90" width="180" height="30" as="geometry"/>
                </mxCell>
                <mxCell id="OQOjHAyYXP0yUHxSc0j6-10" value="" style="shape=partialRectangle;connectable=0;fillColor=none;top=0;left=0;bottom=0;right=0;editable=1;overflow=hidden;whiteSpace=wrap;html=1;" parent="OQOjHAyYXP0yUHxSc0j6-9" vertex="1">
                    <mxGeometry width="29.999999999999886" height="30" as="geometry">
                        <mxRectangle width="29.999999999999886" height="30" as="alternateBounds"/>
                    </mxGeometry>
                </mxCell>
                <mxCell id="OQOjHAyYXP0yUHxSc0j6-11" value="이름&lt;span style=&quot;white-space: pre;&quot;&gt;&#x9;&lt;/span&gt;" style="shape=partialRectangle;connectable=0;fillColor=none;top=0;left=0;bottom=0;right=0;align=left;spacingLeft=6;overflow=hidden;whiteSpace=wrap;html=1;" parent="OQOjHAyYXP0yUHxSc0j6-9" vertex="1">
                    <mxGeometry x="29.999999999999886" width="150.0000000000001" height="30" as="geometry">
                        <mxRectangle width="150.0000000000001" height="30" as="alternateBounds"/>
                    </mxGeometry>
                </mxCell>
                <mxCell id="OQOjHAyYXP0yUHxSc0j6-12" value="" style="shape=tableRow;horizontal=0;startSize=0;swimlaneHead=0;swimlaneBody=0;fillColor=none;collapsible=0;dropTarget=0;points=[[0,0.5],[1,0.5]];portConstraint=eastwest;top=0;left=0;right=0;bottom=0;" parent="OQOjHAyYXP0yUHxSc0j6-2" vertex="1">
                    <mxGeometry y="120" width="180" height="30" as="geometry"/>
                </mxCell>
                <mxCell id="OQOjHAyYXP0yUHxSc0j6-13" value="" style="shape=partialRectangle;connectable=0;fillColor=none;top=0;left=0;bottom=0;right=0;editable=1;overflow=hidden;whiteSpace=wrap;html=1;" parent="OQOjHAyYXP0yUHxSc0j6-12" vertex="1">
                    <mxGeometry width="29.999999999999886" height="30" as="geometry">
                        <mxRectangle width="29.999999999999886" height="30" as="alternateBounds"/>
                    </mxGeometry>
                </mxCell>
                <mxCell id="OQOjHAyYXP0yUHxSc0j6-14" value="나이" style="shape=partialRectangle;connectable=0;fillColor=none;top=0;left=0;bottom=0;right=0;align=left;spacingLeft=6;overflow=hidden;whiteSpace=wrap;html=1;" parent="OQOjHAyYXP0yUHxSc0j6-12" vertex="1">
                    <mxGeometry x="29.999999999999886" width="150.0000000000001" height="30" as="geometry">
                        <mxRectangle width="150.0000000000001" height="30" as="alternateBounds"/>
                    </mxGeometry>
                </mxCell>
                <mxCell id="e5VDIKhWOAPWN4GaHjum-43" value="" style="shape=tableRow;horizontal=0;startSize=0;swimlaneHead=0;swimlaneBody=0;fillColor=none;collapsible=0;dropTarget=0;points=[[0,0.5],[1,0.5]];portConstraint=eastwest;top=0;left=0;right=0;bottom=0;" parent="OQOjHAyYXP0yUHxSc0j6-2" vertex="1">
                    <mxGeometry y="150" width="180" height="30" as="geometry"/>
                </mxCell>
                <mxCell id="e5VDIKhWOAPWN4GaHjum-44" value="" style="shape=partialRectangle;connectable=0;fillColor=none;top=0;left=0;bottom=0;right=0;editable=1;overflow=hidden;whiteSpace=wrap;html=1;" parent="e5VDIKhWOAPWN4GaHjum-43" vertex="1">
                    <mxGeometry width="29.999999999999886" height="30" as="geometry">
                        <mxRectangle width="29.999999999999886" height="30" as="alternateBounds"/>
                    </mxGeometry>
                </mxCell>
                <mxCell id="e5VDIKhWOAPWN4GaHjum-45" value="직업" style="shape=partialRectangle;connectable=0;fillColor=none;top=0;left=0;bottom=0;right=0;align=left;spacingLeft=6;overflow=hidden;whiteSpace=wrap;html=1;" parent="e5VDIKhWOAPWN4GaHjum-43" vertex="1">
                    <mxGeometry x="29.999999999999886" width="150.0000000000001" height="30" as="geometry">
                        <mxRectangle width="150.0000000000001" height="30" as="alternateBounds"/>
                    </mxGeometry>
                </mxCell>
                <mxCell id="e5VDIKhWOAPWN4GaHjum-15" value="제조업체" style="shape=table;startSize=30;container=1;collapsible=1;childLayout=tableLayout;fixedRows=1;rowLines=0;fontStyle=1;align=center;resizeLast=1;html=1;" parent="1" vertex="1">
                    <mxGeometry x="270" y="550" width="180" height="180" as="geometry"/>
                </mxCell>
                <mxCell id="e5VDIKhWOAPWN4GaHjum-16" value="" style="shape=tableRow;horizontal=0;startSize=0;swimlaneHead=0;swimlaneBody=0;fillColor=none;collapsible=0;dropTarget=0;points=[[0,0.5],[1,0.5]];portConstraint=eastwest;top=0;left=0;right=0;bottom=1;" parent="e5VDIKhWOAPWN4GaHjum-15" vertex="1">
                    <mxGeometry y="30" width="180" height="30" as="geometry"/>
                </mxCell>
                <mxCell id="e5VDIKhWOAPWN4GaHjum-17" value="PK" style="shape=partialRectangle;connectable=0;fillColor=none;top=0;left=0;bottom=0;right=0;fontStyle=1;overflow=hidden;whiteSpace=wrap;html=1;" parent="e5VDIKhWOAPWN4GaHjum-16" vertex="1">
                    <mxGeometry width="29.999999999999886" height="30" as="geometry">
                        <mxRectangle width="29.999999999999886" height="30" as="alternateBounds"/>
                    </mxGeometry>
                </mxCell>
                <mxCell id="e5VDIKhWOAPWN4GaHjum-18" value="업체코드" style="shape=partialRectangle;connectable=0;fillColor=none;top=0;left=0;bottom=0;right=0;align=left;spacingLeft=6;fontStyle=5;overflow=hidden;whiteSpace=wrap;html=1;" parent="e5VDIKhWOAPWN4GaHjum-16" vertex="1">
                    <mxGeometry x="29.999999999999886" width="150.0000000000001" height="30" as="geometry">
                        <mxRectangle width="150.0000000000001" height="30" as="alternateBounds"/>
                    </mxGeometry>
                </mxCell>
                <mxCell id="e5VDIKhWOAPWN4GaHjum-19" value="" style="shape=tableRow;horizontal=0;startSize=0;swimlaneHead=0;swimlaneBody=0;fillColor=none;collapsible=0;dropTarget=0;points=[[0,0.5],[1,0.5]];portConstraint=eastwest;top=0;left=0;right=0;bottom=0;" parent="e5VDIKhWOAPWN4GaHjum-15" vertex="1">
                    <mxGeometry y="60" width="180" height="30" as="geometry"/>
                </mxCell>
                <mxCell id="e5VDIKhWOAPWN4GaHjum-20" value="" style="shape=partialRectangle;connectable=0;fillColor=none;top=0;left=0;bottom=0;right=0;editable=1;overflow=hidden;whiteSpace=wrap;html=1;" parent="e5VDIKhWOAPWN4GaHjum-19" vertex="1">
                    <mxGeometry width="29.999999999999886" height="30" as="geometry">
                        <mxRectangle width="29.999999999999886" height="30" as="alternateBounds"/>
                    </mxGeometry>
                </mxCell>
                <mxCell id="e5VDIKhWOAPWN4GaHjum-21" value="업체명" style="shape=partialRectangle;connectable=0;fillColor=none;top=0;left=0;bottom=0;right=0;align=left;spacingLeft=6;overflow=hidden;whiteSpace=wrap;html=1;" parent="e5VDIKhWOAPWN4GaHjum-19" vertex="1">
                    <mxGeometry x="29.999999999999886" width="150.0000000000001" height="30" as="geometry">
                        <mxRectangle width="150.0000000000001" height="30" as="alternateBounds"/>
                    </mxGeometry>
                </mxCell>
                <mxCell id="e5VDIKhWOAPWN4GaHjum-22" value="" style="shape=tableRow;horizontal=0;startSize=0;swimlaneHead=0;swimlaneBody=0;fillColor=none;collapsible=0;dropTarget=0;points=[[0,0.5],[1,0.5]];portConstraint=eastwest;top=0;left=0;right=0;bottom=0;" parent="e5VDIKhWOAPWN4GaHjum-15" vertex="1">
                    <mxGeometry y="90" width="180" height="30" as="geometry"/>
                </mxCell>
                <mxCell id="e5VDIKhWOAPWN4GaHjum-23" value="" style="shape=partialRectangle;connectable=0;fillColor=none;top=0;left=0;bottom=0;right=0;editable=1;overflow=hidden;whiteSpace=wrap;html=1;" parent="e5VDIKhWOAPWN4GaHjum-22" vertex="1">
                    <mxGeometry width="29.999999999999886" height="30" as="geometry">
                        <mxRectangle width="29.999999999999886" height="30" as="alternateBounds"/>
                    </mxGeometry>
                </mxCell>
                <mxCell id="e5VDIKhWOAPWN4GaHjum-24" value="전화번호" style="shape=partialRectangle;connectable=0;fillColor=none;top=0;left=0;bottom=0;right=0;align=left;spacingLeft=6;overflow=hidden;whiteSpace=wrap;html=1;" parent="e5VDIKhWOAPWN4GaHjum-22" vertex="1">
                    <mxGeometry x="29.999999999999886" width="150.0000000000001" height="30" as="geometry">
                        <mxRectangle width="150.0000000000001" height="30" as="alternateBounds"/>
                    </mxGeometry>
                </mxCell>
                <mxCell id="e5VDIKhWOAPWN4GaHjum-25" value="" style="shape=tableRow;horizontal=0;startSize=0;swimlaneHead=0;swimlaneBody=0;fillColor=none;collapsible=0;dropTarget=0;points=[[0,0.5],[1,0.5]];portConstraint=eastwest;top=0;left=0;right=0;bottom=0;" parent="e5VDIKhWOAPWN4GaHjum-15" vertex="1">
                    <mxGeometry y="120" width="180" height="30" as="geometry"/>
                </mxCell>
                <mxCell id="e5VDIKhWOAPWN4GaHjum-26" value="" style="shape=partialRectangle;connectable=0;fillColor=none;top=0;left=0;bottom=0;right=0;editable=1;overflow=hidden;whiteSpace=wrap;html=1;" parent="e5VDIKhWOAPWN4GaHjum-25" vertex="1">
                    <mxGeometry width="29.999999999999886" height="30" as="geometry">
                        <mxRectangle width="29.999999999999886" height="30" as="alternateBounds"/>
                    </mxGeometry>
                </mxCell>
                <mxCell id="e5VDIKhWOAPWN4GaHjum-27" value="위치" style="shape=partialRectangle;connectable=0;fillColor=none;top=0;left=0;bottom=0;right=0;align=left;spacingLeft=6;overflow=hidden;whiteSpace=wrap;html=1;" parent="e5VDIKhWOAPWN4GaHjum-25" vertex="1">
                    <mxGeometry x="29.999999999999886" width="150.0000000000001" height="30" as="geometry">
                        <mxRectangle width="150.0000000000001" height="30" as="alternateBounds"/>
                    </mxGeometry>
                </mxCell>
                <mxCell id="e5VDIKhWOAPWN4GaHjum-46" value="" style="shape=tableRow;horizontal=0;startSize=0;swimlaneHead=0;swimlaneBody=0;fillColor=none;collapsible=0;dropTarget=0;points=[[0,0.5],[1,0.5]];portConstraint=eastwest;top=0;left=0;right=0;bottom=0;" parent="e5VDIKhWOAPWN4GaHjum-15" vertex="1">
                    <mxGeometry y="150" width="180" height="30" as="geometry"/>
                </mxCell>
                <mxCell id="e5VDIKhWOAPWN4GaHjum-47" value="" style="shape=partialRectangle;connectable=0;fillColor=none;top=0;left=0;bottom=0;right=0;editable=1;overflow=hidden;whiteSpace=wrap;html=1;" parent="e5VDIKhWOAPWN4GaHjum-46" vertex="1">
                    <mxGeometry width="29.999999999999886" height="30" as="geometry">
                        <mxRectangle width="29.999999999999886" height="30" as="alternateBounds"/>
                    </mxGeometry>
                </mxCell>
                <mxCell id="e5VDIKhWOAPWN4GaHjum-48" value="담당자" style="shape=partialRectangle;connectable=0;fillColor=none;top=0;left=0;bottom=0;right=0;align=left;spacingLeft=6;overflow=hidden;whiteSpace=wrap;html=1;" parent="e5VDIKhWOAPWN4GaHjum-46" vertex="1">
                    <mxGeometry x="29.999999999999886" width="150.0000000000001" height="30" as="geometry">
                        <mxRectangle width="150.0000000000001" height="30" as="alternateBounds"/>
                    </mxGeometry>
                </mxCell>
                <mxCell id="e5VDIKhWOAPWN4GaHjum-66" value="게시글" style="shape=table;startSize=30;container=1;collapsible=1;childLayout=tableLayout;fixedRows=1;rowLines=0;fontStyle=1;align=center;resizeLast=1;html=1;" parent="1" vertex="1">
                    <mxGeometry x="30" y="550" width="180" height="175" as="geometry"/>
                </mxCell>
                <mxCell id="e5VDIKhWOAPWN4GaHjum-67" value="" style="shape=tableRow;horizontal=0;startSize=0;swimlaneHead=0;swimlaneBody=0;fillColor=none;collapsible=0;dropTarget=0;points=[[0,0.5],[1,0.5]];portConstraint=eastwest;top=0;left=0;right=0;bottom=1;" parent="e5VDIKhWOAPWN4GaHjum-66" vertex="1">
                    <mxGeometry y="30" width="180" height="30" as="geometry"/>
                </mxCell>
                <mxCell id="e5VDIKhWOAPWN4GaHjum-68" value="PK" style="shape=partialRectangle;connectable=0;fillColor=none;top=0;left=0;bottom=0;right=0;fontStyle=1;overflow=hidden;whiteSpace=wrap;html=1;" parent="e5VDIKhWOAPWN4GaHjum-67" vertex="1">
                    <mxGeometry width="29.999999999999886" height="30" as="geometry">
                        <mxRectangle width="29.999999999999886" height="30" as="alternateBounds"/>
                    </mxGeometry>
                </mxCell>
                <mxCell id="e5VDIKhWOAPWN4GaHjum-69" value="글번호" style="shape=partialRectangle;connectable=0;fillColor=none;top=0;left=0;bottom=0;right=0;align=left;spacingLeft=6;fontStyle=5;overflow=hidden;whiteSpace=wrap;html=1;" parent="e5VDIKhWOAPWN4GaHjum-67" vertex="1">
                    <mxGeometry x="29.999999999999886" width="150.0000000000001" height="30" as="geometry">
                        <mxRectangle width="150.0000000000001" height="30" as="alternateBounds"/>
                    </mxGeometry>
                </mxCell>
                <mxCell id="RmAlr_m_3SbyFGguXEKS-25" value="" style="shape=tableRow;horizontal=0;startSize=0;swimlaneHead=0;swimlaneBody=0;fillColor=none;collapsible=0;dropTarget=0;points=[[0,0.5],[1,0.5]];portConstraint=eastwest;top=0;left=0;right=0;bottom=1;" parent="e5VDIKhWOAPWN4GaHjum-66" vertex="1">
                    <mxGeometry y="60" width="180" height="30" as="geometry"/>
                </mxCell>
                <mxCell id="RmAlr_m_3SbyFGguXEKS-26" value="FK" style="shape=partialRectangle;connectable=0;fillColor=none;top=0;left=0;bottom=0;right=0;fontStyle=1;overflow=hidden;whiteSpace=wrap;html=1;" parent="RmAlr_m_3SbyFGguXEKS-25" vertex="1">
                    <mxGeometry width="29.999999999999886" height="30" as="geometry">
                        <mxRectangle width="29.999999999999886" height="30" as="alternateBounds"/>
                    </mxGeometry>
                </mxCell>
                <mxCell id="RmAlr_m_3SbyFGguXEKS-27" value="회원 아이디" style="shape=partialRectangle;connectable=0;fillColor=none;top=0;left=0;bottom=0;right=0;align=left;spacingLeft=6;fontStyle=5;overflow=hidden;whiteSpace=wrap;html=1;" parent="RmAlr_m_3SbyFGguXEKS-25" vertex="1">
                    <mxGeometry x="29.999999999999886" width="150.0000000000001" height="30" as="geometry">
                        <mxRectangle width="150.0000000000001" height="30" as="alternateBounds"/>
                    </mxGeometry>
                </mxCell>
                <mxCell id="e5VDIKhWOAPWN4GaHjum-73" value="" style="shape=tableRow;horizontal=0;startSize=0;swimlaneHead=0;swimlaneBody=0;fillColor=none;collapsible=0;dropTarget=0;points=[[0,0.5],[1,0.5]];portConstraint=eastwest;top=0;left=0;right=0;bottom=0;" parent="e5VDIKhWOAPWN4GaHjum-66" vertex="1">
                    <mxGeometry y="90" width="180" height="30" as="geometry"/>
                </mxCell>
                <mxCell id="e5VDIKhWOAPWN4GaHjum-74" value="" style="shape=partialRectangle;connectable=0;fillColor=none;top=0;left=0;bottom=0;right=0;editable=1;overflow=hidden;whiteSpace=wrap;html=1;" parent="e5VDIKhWOAPWN4GaHjum-73" vertex="1">
                    <mxGeometry width="29.999999999999886" height="30" as="geometry">
                        <mxRectangle width="29.999999999999886" height="30" as="alternateBounds"/>
                    </mxGeometry>
                </mxCell>
                <mxCell id="e5VDIKhWOAPWN4GaHjum-75" value="제목" style="shape=partialRectangle;connectable=0;fillColor=none;top=0;left=0;bottom=0;right=0;align=left;spacingLeft=6;overflow=hidden;whiteSpace=wrap;html=1;" parent="e5VDIKhWOAPWN4GaHjum-73" vertex="1">
                    <mxGeometry x="29.999999999999886" width="150.0000000000001" height="30" as="geometry">
                        <mxRectangle width="150.0000000000001" height="30" as="alternateBounds"/>
                    </mxGeometry>
                </mxCell>
                <mxCell id="e5VDIKhWOAPWN4GaHjum-76" value="" style="shape=tableRow;horizontal=0;startSize=0;swimlaneHead=0;swimlaneBody=0;fillColor=none;collapsible=0;dropTarget=0;points=[[0,0.5],[1,0.5]];portConstraint=eastwest;top=0;left=0;right=0;bottom=0;" parent="e5VDIKhWOAPWN4GaHjum-66" vertex="1">
                    <mxGeometry y="120" width="180" height="25" as="geometry"/>
                </mxCell>
                <mxCell id="e5VDIKhWOAPWN4GaHjum-77" value="" style="shape=partialRectangle;connectable=0;fillColor=none;top=0;left=0;bottom=0;right=0;editable=1;overflow=hidden;whiteSpace=wrap;html=1;" parent="e5VDIKhWOAPWN4GaHjum-76" vertex="1">
                    <mxGeometry width="29.999999999999886" height="25" as="geometry">
                        <mxRectangle width="29.999999999999886" height="25" as="alternateBounds"/>
                    </mxGeometry>
                </mxCell>
                <mxCell id="e5VDIKhWOAPWN4GaHjum-78" value="내용" style="shape=partialRectangle;connectable=0;fillColor=none;top=0;left=0;bottom=0;right=0;align=left;spacingLeft=6;overflow=hidden;whiteSpace=wrap;html=1;" parent="e5VDIKhWOAPWN4GaHjum-76" vertex="1">
                    <mxGeometry x="29.999999999999886" width="150.0000000000001" height="25" as="geometry">
                        <mxRectangle width="150.0000000000001" height="25" as="alternateBounds"/>
                    </mxGeometry>
                </mxCell>
                <mxCell id="e5VDIKhWOAPWN4GaHjum-79" value="" style="shape=tableRow;horizontal=0;startSize=0;swimlaneHead=0;swimlaneBody=0;fillColor=none;collapsible=0;dropTarget=0;points=[[0,0.5],[1,0.5]];portConstraint=eastwest;top=0;left=0;right=0;bottom=0;" parent="e5VDIKhWOAPWN4GaHjum-66" vertex="1">
                    <mxGeometry y="145" width="180" height="25" as="geometry"/>
                </mxCell>
                <mxCell id="e5VDIKhWOAPWN4GaHjum-80" value="" style="shape=partialRectangle;connectable=0;fillColor=none;top=0;left=0;bottom=0;right=0;editable=1;overflow=hidden;whiteSpace=wrap;html=1;" parent="e5VDIKhWOAPWN4GaHjum-79" vertex="1">
                    <mxGeometry width="29.999999999999886" height="25" as="geometry">
                        <mxRectangle width="29.999999999999886" height="25" as="alternateBounds"/>
                    </mxGeometry>
                </mxCell>
                <mxCell id="e5VDIKhWOAPWN4GaHjum-81" value="작성일" style="shape=partialRectangle;connectable=0;fillColor=none;top=0;left=0;bottom=0;right=0;align=left;spacingLeft=6;overflow=hidden;whiteSpace=wrap;html=1;" parent="e5VDIKhWOAPWN4GaHjum-79" vertex="1">
                    <mxGeometry x="29.999999999999886" width="150.0000000000001" height="25" as="geometry">
                        <mxRectangle width="150.0000000000001" height="25" as="alternateBounds"/>
                    </mxGeometry>
                </mxCell>
                <mxCell id="L3XZ9PlZJcRbrURjneD_-1" value="주문" style="shape=table;startSize=30;container=1;collapsible=1;childLayout=tableLayout;fixedRows=1;rowLines=0;fontStyle=1;align=center;resizeLast=1;html=1;whiteSpace=wrap;" parent="1" vertex="1">
                    <mxGeometry x="270" y="260" width="180" height="240" as="geometry"/>
                </mxCell>
                <mxCell id="L3XZ9PlZJcRbrURjneD_-2" value="" style="shape=tableRow;horizontal=0;startSize=0;swimlaneHead=0;swimlaneBody=0;fillColor=none;collapsible=0;dropTarget=0;points=[[0,0.5],[1,0.5]];portConstraint=eastwest;top=0;left=0;right=0;bottom=0;html=1;" parent="L3XZ9PlZJcRbrURjneD_-1" vertex="1">
                    <mxGeometry y="30" width="180" height="30" as="geometry"/>
                </mxCell>
                <mxCell id="L3XZ9PlZJcRbrURjneD_-3" value="PK" style="shape=partialRectangle;connectable=0;fillColor=none;top=0;left=0;bottom=0;right=0;fontStyle=1;overflow=hidden;html=1;whiteSpace=wrap;" parent="L3XZ9PlZJcRbrURjneD_-2" vertex="1">
                    <mxGeometry width="60" height="30" as="geometry">
                        <mxRectangle width="60" height="30" as="alternateBounds"/>
                    </mxGeometry>
                </mxCell>
                <mxCell id="L3XZ9PlZJcRbrURjneD_-4" value="주문번호" style="shape=partialRectangle;connectable=0;fillColor=none;top=0;left=0;bottom=0;right=0;align=left;spacingLeft=6;fontStyle=5;overflow=hidden;html=1;whiteSpace=wrap;" parent="L3XZ9PlZJcRbrURjneD_-2" vertex="1">
                    <mxGeometry x="60" width="120" height="30" as="geometry">
                        <mxRectangle width="120" height="30" as="alternateBounds"/>
                    </mxGeometry>
                </mxCell>
                <mxCell id="L3XZ9PlZJcRbrURjneD_-5" value="" style="shape=tableRow;horizontal=0;startSize=0;swimlaneHead=0;swimlaneBody=0;fillColor=none;collapsible=0;dropTarget=0;points=[[0,0.5],[1,0.5]];portConstraint=eastwest;top=0;left=0;right=0;bottom=1;html=1;" parent="L3XZ9PlZJcRbrURjneD_-1" vertex="1">
                    <mxGeometry y="60" width="180" height="30" as="geometry"/>
                </mxCell>
                <mxCell id="L3XZ9PlZJcRbrURjneD_-6" value="FK" style="shape=partialRectangle;connectable=0;fillColor=none;top=0;left=0;bottom=0;right=0;fontStyle=1;overflow=hidden;html=1;whiteSpace=wrap;" parent="L3XZ9PlZJcRbrURjneD_-5" vertex="1">
                    <mxGeometry width="60" height="30" as="geometry">
                        <mxRectangle width="60" height="30" as="alternateBounds"/>
                    </mxGeometry>
                </mxCell>
                <mxCell id="L3XZ9PlZJcRbrURjneD_-7" value="상품번호" style="shape=partialRectangle;connectable=0;fillColor=none;top=0;left=0;bottom=0;right=0;align=left;spacingLeft=6;fontStyle=5;overflow=hidden;html=1;whiteSpace=wrap;" parent="L3XZ9PlZJcRbrURjneD_-5" vertex="1">
                    <mxGeometry x="60" width="120" height="30" as="geometry">
                        <mxRectangle width="120" height="30" as="alternateBounds"/>
                    </mxGeometry>
                </mxCell>
                <mxCell id="L3XZ9PlZJcRbrURjneD_-14" value="" style="shape=tableRow;horizontal=0;startSize=0;swimlaneHead=0;swimlaneBody=0;fillColor=none;collapsible=0;dropTarget=0;points=[[0,0.5],[1,0.5]];portConstraint=eastwest;top=0;left=0;right=0;bottom=1;html=1;" parent="L3XZ9PlZJcRbrURjneD_-1" vertex="1">
                    <mxGeometry y="90" width="180" height="30" as="geometry"/>
                </mxCell>
                <mxCell id="L3XZ9PlZJcRbrURjneD_-15" value="FK" style="shape=partialRectangle;connectable=0;fillColor=none;top=0;left=0;bottom=0;right=0;fontStyle=1;overflow=hidden;html=1;whiteSpace=wrap;" parent="L3XZ9PlZJcRbrURjneD_-14" vertex="1">
                    <mxGeometry width="60" height="30" as="geometry">
                        <mxRectangle width="60" height="30" as="alternateBounds"/>
                    </mxGeometry>
                </mxCell>
                <mxCell id="L3XZ9PlZJcRbrURjneD_-16" value="회원 아이디" style="shape=partialRectangle;connectable=0;fillColor=none;top=0;left=0;bottom=0;right=0;align=left;spacingLeft=6;fontStyle=5;overflow=hidden;html=1;whiteSpace=wrap;" parent="L3XZ9PlZJcRbrURjneD_-14" vertex="1">
                    <mxGeometry x="60" width="120" height="30" as="geometry">
                        <mxRectangle width="120" height="30" as="alternateBounds"/>
                    </mxGeometry>
                </mxCell>
                <mxCell id="L3XZ9PlZJcRbrURjneD_-8" value="" style="shape=tableRow;horizontal=0;startSize=0;swimlaneHead=0;swimlaneBody=0;fillColor=none;collapsible=0;dropTarget=0;points=[[0,0.5],[1,0.5]];portConstraint=eastwest;top=0;left=0;right=0;bottom=0;html=1;" parent="L3XZ9PlZJcRbrURjneD_-1" vertex="1">
                    <mxGeometry y="120" width="180" height="30" as="geometry"/>
                </mxCell>
                <mxCell id="L3XZ9PlZJcRbrURjneD_-9" value="" style="shape=partialRectangle;connectable=0;fillColor=none;top=0;left=0;bottom=0;right=0;editable=1;overflow=hidden;html=1;whiteSpace=wrap;" parent="L3XZ9PlZJcRbrURjneD_-8" vertex="1">
                    <mxGeometry width="60" height="30" as="geometry">
                        <mxRectangle width="60" height="30" as="alternateBounds"/>
                    </mxGeometry>
                </mxCell>
                <mxCell id="L3XZ9PlZJcRbrURjneD_-10" value="주문수량" style="shape=partialRectangle;connectable=0;fillColor=none;top=0;left=0;bottom=0;right=0;align=left;spacingLeft=6;overflow=hidden;html=1;whiteSpace=wrap;" parent="L3XZ9PlZJcRbrURjneD_-8" vertex="1">
                    <mxGeometry x="60" width="120" height="30" as="geometry">
                        <mxRectangle width="120" height="30" as="alternateBounds"/>
                    </mxGeometry>
                </mxCell>
                <mxCell id="L3XZ9PlZJcRbrURjneD_-11" value="" style="shape=tableRow;horizontal=0;startSize=0;swimlaneHead=0;swimlaneBody=0;fillColor=none;collapsible=0;dropTarget=0;points=[[0,0.5],[1,0.5]];portConstraint=eastwest;top=0;left=0;right=0;bottom=0;html=1;" parent="L3XZ9PlZJcRbrURjneD_-1" vertex="1">
                    <mxGeometry y="150" width="180" height="30" as="geometry"/>
                </mxCell>
                <mxCell id="L3XZ9PlZJcRbrURjneD_-12" value="" style="shape=partialRectangle;connectable=0;fillColor=none;top=0;left=0;bottom=0;right=0;editable=1;overflow=hidden;html=1;whiteSpace=wrap;" parent="L3XZ9PlZJcRbrURjneD_-11" vertex="1">
                    <mxGeometry width="60" height="30" as="geometry">
                        <mxRectangle width="60" height="30" as="alternateBounds"/>
                    </mxGeometry>
                </mxCell>
                <mxCell id="L3XZ9PlZJcRbrURjneD_-13" value="기본주소" style="shape=partialRectangle;connectable=0;fillColor=none;top=0;left=0;bottom=0;right=0;align=left;spacingLeft=6;overflow=hidden;html=1;whiteSpace=wrap;" parent="L3XZ9PlZJcRbrURjneD_-11" vertex="1">
                    <mxGeometry x="60" width="120" height="30" as="geometry">
                        <mxRectangle width="120" height="30" as="alternateBounds"/>
                    </mxGeometry>
                </mxCell>
                <mxCell id="L3XZ9PlZJcRbrURjneD_-17" value="" style="shape=tableRow;horizontal=0;startSize=0;swimlaneHead=0;swimlaneBody=0;fillColor=none;collapsible=0;dropTarget=0;points=[[0,0.5],[1,0.5]];portConstraint=eastwest;top=0;left=0;right=0;bottom=0;html=1;" parent="L3XZ9PlZJcRbrURjneD_-1" vertex="1">
                    <mxGeometry y="180" width="180" height="30" as="geometry"/>
                </mxCell>
                <mxCell id="L3XZ9PlZJcRbrURjneD_-18" value="" style="shape=partialRectangle;connectable=0;fillColor=none;top=0;left=0;bottom=0;right=0;editable=1;overflow=hidden;html=1;whiteSpace=wrap;" parent="L3XZ9PlZJcRbrURjneD_-17" vertex="1">
                    <mxGeometry width="60" height="30" as="geometry">
                        <mxRectangle width="60" height="30" as="alternateBounds"/>
                    </mxGeometry>
                </mxCell>
                <mxCell id="L3XZ9PlZJcRbrURjneD_-19" value="상세주소" style="shape=partialRectangle;connectable=0;fillColor=none;top=0;left=0;bottom=0;right=0;align=left;spacingLeft=6;overflow=hidden;html=1;whiteSpace=wrap;" parent="L3XZ9PlZJcRbrURjneD_-17" vertex="1">
                    <mxGeometry x="60" width="120" height="30" as="geometry">
                        <mxRectangle width="120" height="30" as="alternateBounds"/>
                    </mxGeometry>
                </mxCell>
                <mxCell id="L3XZ9PlZJcRbrURjneD_-20" value="" style="shape=tableRow;horizontal=0;startSize=0;swimlaneHead=0;swimlaneBody=0;fillColor=none;collapsible=0;dropTarget=0;points=[[0,0.5],[1,0.5]];portConstraint=eastwest;top=0;left=0;right=0;bottom=0;html=1;" parent="L3XZ9PlZJcRbrURjneD_-1" vertex="1">
                    <mxGeometry y="210" width="180" height="30" as="geometry"/>
                </mxCell>
                <mxCell id="L3XZ9PlZJcRbrURjneD_-21" value="" style="shape=partialRectangle;connectable=0;fillColor=none;top=0;left=0;bottom=0;right=0;editable=1;overflow=hidden;html=1;whiteSpace=wrap;" parent="L3XZ9PlZJcRbrURjneD_-20" vertex="1">
                    <mxGeometry width="60" height="30" as="geometry">
                        <mxRectangle width="60" height="30" as="alternateBounds"/>
                    </mxGeometry>
                </mxCell>
                <mxCell id="L3XZ9PlZJcRbrURjneD_-22" value="주문일자" style="shape=partialRectangle;connectable=0;fillColor=none;top=0;left=0;bottom=0;right=0;align=left;spacingLeft=6;overflow=hidden;html=1;whiteSpace=wrap;" parent="L3XZ9PlZJcRbrURjneD_-20" vertex="1">
                    <mxGeometry x="60" width="120" height="30" as="geometry">
                        <mxRectangle width="120" height="30" as="alternateBounds"/>
                    </mxGeometry>
                </mxCell>
                <mxCell id="4pT-PG2RW2z6XrsXYUMu-1" value="상품 색상" style="shape=table;startSize=30;container=1;collapsible=1;childLayout=tableLayout;fixedRows=1;rowLines=0;fontStyle=1;align=center;resizeLast=1;html=1;" parent="1" vertex="1">
                    <mxGeometry x="750" y="260" width="180" height="120" as="geometry"/>
                </mxCell>
                <mxCell id="4pT-PG2RW2z6XrsXYUMu-2" value="" style="shape=tableRow;horizontal=0;startSize=0;swimlaneHead=0;swimlaneBody=0;fillColor=none;collapsible=0;dropTarget=0;points=[[0,0.5],[1,0.5]];portConstraint=eastwest;top=0;left=0;right=0;bottom=1;" parent="4pT-PG2RW2z6XrsXYUMu-1" vertex="1">
                    <mxGeometry y="30" width="180" height="30" as="geometry"/>
                </mxCell>
                <mxCell id="4pT-PG2RW2z6XrsXYUMu-3" value="PK" style="shape=partialRectangle;connectable=0;fillColor=none;top=0;left=0;bottom=0;right=0;fontStyle=1;overflow=hidden;whiteSpace=wrap;html=1;" parent="4pT-PG2RW2z6XrsXYUMu-2" vertex="1">
                    <mxGeometry width="30" height="30" as="geometry">
                        <mxRectangle width="30" height="30" as="alternateBounds"/>
                    </mxGeometry>
                </mxCell>
                <mxCell id="4pT-PG2RW2z6XrsXYUMu-4" value="NO" style="shape=partialRectangle;connectable=0;fillColor=none;top=0;left=0;bottom=0;right=0;align=left;spacingLeft=6;fontStyle=5;overflow=hidden;whiteSpace=wrap;html=1;" parent="4pT-PG2RW2z6XrsXYUMu-2" vertex="1">
                    <mxGeometry x="30" width="150" height="30" as="geometry">
                        <mxRectangle width="150" height="30" as="alternateBounds"/>
                    </mxGeometry>
                </mxCell>
                <mxCell id="4pT-PG2RW2z6XrsXYUMu-14" value="" style="shape=tableRow;horizontal=0;startSize=0;swimlaneHead=0;swimlaneBody=0;fillColor=none;collapsible=0;dropTarget=0;points=[[0,0.5],[1,0.5]];portConstraint=eastwest;top=0;left=0;right=0;bottom=1;" parent="4pT-PG2RW2z6XrsXYUMu-1" vertex="1">
                    <mxGeometry y="60" width="180" height="30" as="geometry"/>
                </mxCell>
                <mxCell id="4pT-PG2RW2z6XrsXYUMu-15" value="FK" style="shape=partialRectangle;connectable=0;fillColor=none;top=0;left=0;bottom=0;right=0;fontStyle=1;overflow=hidden;whiteSpace=wrap;html=1;" parent="4pT-PG2RW2z6XrsXYUMu-14" vertex="1">
                    <mxGeometry width="30" height="30" as="geometry">
                        <mxRectangle width="30" height="30" as="alternateBounds"/>
                    </mxGeometry>
                </mxCell>
                <mxCell id="4pT-PG2RW2z6XrsXYUMu-16" value="상품 번호" style="shape=partialRectangle;connectable=0;fillColor=none;top=0;left=0;bottom=0;right=0;align=left;spacingLeft=6;fontStyle=5;overflow=hidden;whiteSpace=wrap;html=1;" parent="4pT-PG2RW2z6XrsXYUMu-14" vertex="1">
                    <mxGeometry x="30" width="150" height="30" as="geometry">
                        <mxRectangle width="150" height="30" as="alternateBounds"/>
                    </mxGeometry>
                </mxCell>
                <mxCell id="4pT-PG2RW2z6XrsXYUMu-5" value="" style="shape=tableRow;horizontal=0;startSize=0;swimlaneHead=0;swimlaneBody=0;fillColor=none;collapsible=0;dropTarget=0;points=[[0,0.5],[1,0.5]];portConstraint=eastwest;top=0;left=0;right=0;bottom=0;" parent="4pT-PG2RW2z6XrsXYUMu-1" vertex="1">
                    <mxGeometry y="90" width="180" height="30" as="geometry"/>
                </mxCell>
                <mxCell id="4pT-PG2RW2z6XrsXYUMu-6" value="" style="shape=partialRectangle;connectable=0;fillColor=none;top=0;left=0;bottom=0;right=0;editable=1;overflow=hidden;whiteSpace=wrap;html=1;" parent="4pT-PG2RW2z6XrsXYUMu-5" vertex="1">
                    <mxGeometry width="30" height="30" as="geometry">
                        <mxRectangle width="30" height="30" as="alternateBounds"/>
                    </mxGeometry>
                </mxCell>
                <mxCell id="4pT-PG2RW2z6XrsXYUMu-7" value="색상" style="shape=partialRectangle;connectable=0;fillColor=none;top=0;left=0;bottom=0;right=0;align=left;spacingLeft=6;overflow=hidden;whiteSpace=wrap;html=1;" parent="4pT-PG2RW2z6XrsXYUMu-5" vertex="1">
                    <mxGeometry x="30" width="150" height="30" as="geometry">
                        <mxRectangle width="150" height="30" as="alternateBounds"/>
                    </mxGeometry>
                </mxCell>
                <mxCell id="e5VDIKhWOAPWN4GaHjum-29" value="상품" style="shape=table;startSize=30;container=1;collapsible=1;childLayout=tableLayout;fixedRows=1;rowLines=0;fontStyle=1;align=center;resizeLast=1;html=1;" parent="1" vertex="1">
                    <mxGeometry x="510" y="260" width="180" height="225" as="geometry"/>
                </mxCell>
                <mxCell id="e5VDIKhWOAPWN4GaHjum-30" value="" style="shape=tableRow;horizontal=0;startSize=0;swimlaneHead=0;swimlaneBody=0;fillColor=none;collapsible=0;dropTarget=0;points=[[0,0.5],[1,0.5]];portConstraint=eastwest;top=0;left=0;right=0;bottom=1;" parent="e5VDIKhWOAPWN4GaHjum-29" vertex="1">
                    <mxGeometry y="30" width="180" height="30" as="geometry"/>
                </mxCell>
                <mxCell id="e5VDIKhWOAPWN4GaHjum-31" value="PK" style="shape=partialRectangle;connectable=0;fillColor=none;top=0;left=0;bottom=0;right=0;fontStyle=1;overflow=hidden;whiteSpace=wrap;html=1;" parent="e5VDIKhWOAPWN4GaHjum-30" vertex="1">
                    <mxGeometry width="29.999999999999886" height="30" as="geometry">
                        <mxRectangle width="29.999999999999886" height="30" as="alternateBounds"/>
                    </mxGeometry>
                </mxCell>
                <mxCell id="e5VDIKhWOAPWN4GaHjum-32" value="상품번호" style="shape=partialRectangle;connectable=0;fillColor=none;top=0;left=0;bottom=0;right=0;align=left;spacingLeft=6;fontStyle=5;overflow=hidden;whiteSpace=wrap;html=1;" parent="e5VDIKhWOAPWN4GaHjum-30" vertex="1">
                    <mxGeometry x="29.999999999999886" width="150.0000000000001" height="30" as="geometry">
                        <mxRectangle width="150.0000000000001" height="30" as="alternateBounds"/>
                    </mxGeometry>
                </mxCell>
                <mxCell id="RmAlr_m_3SbyFGguXEKS-22" value="" style="shape=tableRow;horizontal=0;startSize=0;swimlaneHead=0;swimlaneBody=0;fillColor=none;collapsible=0;dropTarget=0;points=[[0,0.5],[1,0.5]];portConstraint=eastwest;top=0;left=0;right=0;bottom=1;" parent="e5VDIKhWOAPWN4GaHjum-29" vertex="1">
                    <mxGeometry y="60" width="180" height="30" as="geometry"/>
                </mxCell>
                <mxCell id="RmAlr_m_3SbyFGguXEKS-23" value="FK" style="shape=partialRectangle;connectable=0;fillColor=none;top=0;left=0;bottom=0;right=0;fontStyle=1;overflow=hidden;whiteSpace=wrap;html=1;" parent="RmAlr_m_3SbyFGguXEKS-22" vertex="1">
                    <mxGeometry width="29.999999999999886" height="30" as="geometry">
                        <mxRectangle width="29.999999999999886" height="30" as="alternateBounds"/>
                    </mxGeometry>
                </mxCell>
                <mxCell id="RmAlr_m_3SbyFGguXEKS-24" value="업체코드" style="shape=partialRectangle;connectable=0;fillColor=none;top=0;left=0;bottom=0;right=0;align=left;spacingLeft=6;fontStyle=5;overflow=hidden;whiteSpace=wrap;html=1;" parent="RmAlr_m_3SbyFGguXEKS-22" vertex="1">
                    <mxGeometry x="29.999999999999886" width="150.0000000000001" height="30" as="geometry">
                        <mxRectangle width="150.0000000000001" height="30" as="alternateBounds"/>
                    </mxGeometry>
                </mxCell>
                <mxCell id="e5VDIKhWOAPWN4GaHjum-36" value="" style="shape=tableRow;horizontal=0;startSize=0;swimlaneHead=0;swimlaneBody=0;fillColor=none;collapsible=0;dropTarget=0;points=[[0,0.5],[1,0.5]];portConstraint=eastwest;top=0;left=0;right=0;bottom=0;" parent="e5VDIKhWOAPWN4GaHjum-29" vertex="1">
                    <mxGeometry y="90" width="180" height="30" as="geometry"/>
                </mxCell>
                <mxCell id="e5VDIKhWOAPWN4GaHjum-37" value="" style="shape=partialRectangle;connectable=0;fillColor=none;top=0;left=0;bottom=0;right=0;editable=1;overflow=hidden;whiteSpace=wrap;html=1;" parent="e5VDIKhWOAPWN4GaHjum-36" vertex="1">
                    <mxGeometry width="29.999999999999886" height="30" as="geometry">
                        <mxRectangle width="29.999999999999886" height="30" as="alternateBounds"/>
                    </mxGeometry>
                </mxCell>
                <mxCell id="e5VDIKhWOAPWN4GaHjum-38" value="상품명" style="shape=partialRectangle;connectable=0;fillColor=none;top=0;left=0;bottom=0;right=0;align=left;spacingLeft=6;overflow=hidden;whiteSpace=wrap;html=1;" parent="e5VDIKhWOAPWN4GaHjum-36" vertex="1">
                    <mxGeometry x="29.999999999999886" width="150.0000000000001" height="30" as="geometry">
                        <mxRectangle width="150.0000000000001" height="30" as="alternateBounds"/>
                    </mxGeometry>
                </mxCell>
                <mxCell id="e5VDIKhWOAPWN4GaHjum-39" value="" style="shape=tableRow;horizontal=0;startSize=0;swimlaneHead=0;swimlaneBody=0;fillColor=none;collapsible=0;dropTarget=0;points=[[0,0.5],[1,0.5]];portConstraint=eastwest;top=0;left=0;right=0;bottom=0;" parent="e5VDIKhWOAPWN4GaHjum-29" vertex="1">
                    <mxGeometry y="120" width="180" height="25" as="geometry"/>
                </mxCell>
                <mxCell id="e5VDIKhWOAPWN4GaHjum-40" value="" style="shape=partialRectangle;connectable=0;fillColor=none;top=0;left=0;bottom=0;right=0;editable=1;overflow=hidden;whiteSpace=wrap;html=1;" parent="e5VDIKhWOAPWN4GaHjum-39" vertex="1">
                    <mxGeometry width="29.999999999999886" height="25" as="geometry">
                        <mxRectangle width="29.999999999999886" height="25" as="alternateBounds"/>
                    </mxGeometry>
                </mxCell>
                <mxCell id="e5VDIKhWOAPWN4GaHjum-41" value="재고량" style="shape=partialRectangle;connectable=0;fillColor=none;top=0;left=0;bottom=0;right=0;align=left;spacingLeft=6;overflow=hidden;whiteSpace=wrap;html=1;" parent="e5VDIKhWOAPWN4GaHjum-39" vertex="1">
                    <mxGeometry x="29.999999999999886" width="150.0000000000001" height="25" as="geometry">
                        <mxRectangle width="150.0000000000001" height="25" as="alternateBounds"/>
                    </mxGeometry>
                </mxCell>
                <mxCell id="e5VDIKhWOAPWN4GaHjum-63" value="" style="shape=tableRow;horizontal=0;startSize=0;swimlaneHead=0;swimlaneBody=0;fillColor=none;collapsible=0;dropTarget=0;points=[[0,0.5],[1,0.5]];portConstraint=eastwest;top=0;left=0;right=0;bottom=0;" parent="e5VDIKhWOAPWN4GaHjum-29" vertex="1">
                    <mxGeometry y="145" width="180" height="25" as="geometry"/>
                </mxCell>
                <mxCell id="e5VDIKhWOAPWN4GaHjum-64" value="" style="shape=partialRectangle;connectable=0;fillColor=none;top=0;left=0;bottom=0;right=0;editable=1;overflow=hidden;whiteSpace=wrap;html=1;" parent="e5VDIKhWOAPWN4GaHjum-63" vertex="1">
                    <mxGeometry width="29.999999999999886" height="25" as="geometry">
                        <mxRectangle width="29.999999999999886" height="25" as="alternateBounds"/>
                    </mxGeometry>
                </mxCell>
                <mxCell id="e5VDIKhWOAPWN4GaHjum-65" value="단가" style="shape=partialRectangle;connectable=0;fillColor=none;top=0;left=0;bottom=0;right=0;align=left;spacingLeft=6;overflow=hidden;whiteSpace=wrap;html=1;" parent="e5VDIKhWOAPWN4GaHjum-63" vertex="1">
                    <mxGeometry x="29.999999999999886" width="150.0000000000001" height="25" as="geometry">
                        <mxRectangle width="150.0000000000001" height="25" as="alternateBounds"/>
                    </mxGeometry>
                </mxCell>
                <mxCell id="RmAlr_m_3SbyFGguXEKS-16" value="" style="shape=tableRow;horizontal=0;startSize=0;swimlaneHead=0;swimlaneBody=0;fillColor=none;collapsible=0;dropTarget=0;points=[[0,0.5],[1,0.5]];portConstraint=eastwest;top=0;left=0;right=0;bottom=0;" parent="e5VDIKhWOAPWN4GaHjum-29" vertex="1">
                    <mxGeometry y="170" width="180" height="25" as="geometry"/>
                </mxCell>
                <mxCell id="RmAlr_m_3SbyFGguXEKS-17" value="" style="shape=partialRectangle;connectable=0;fillColor=none;top=0;left=0;bottom=0;right=0;editable=1;overflow=hidden;whiteSpace=wrap;html=1;" parent="RmAlr_m_3SbyFGguXEKS-16" vertex="1">
                    <mxGeometry width="29.999999999999886" height="25" as="geometry">
                        <mxRectangle width="29.999999999999886" height="25" as="alternateBounds"/>
                    </mxGeometry>
                </mxCell>
                <mxCell id="RmAlr_m_3SbyFGguXEKS-18" value="공급일자" style="shape=partialRectangle;connectable=0;fillColor=none;top=0;left=0;bottom=0;right=0;align=left;spacingLeft=6;overflow=hidden;whiteSpace=wrap;html=1;" parent="RmAlr_m_3SbyFGguXEKS-16" vertex="1">
                    <mxGeometry x="29.999999999999886" width="150.0000000000001" height="25" as="geometry">
                        <mxRectangle width="150.0000000000001" height="25" as="alternateBounds"/>
                    </mxGeometry>
                </mxCell>
                <mxCell id="RmAlr_m_3SbyFGguXEKS-19" value="" style="shape=tableRow;horizontal=0;startSize=0;swimlaneHead=0;swimlaneBody=0;fillColor=none;collapsible=0;dropTarget=0;points=[[0,0.5],[1,0.5]];portConstraint=eastwest;top=0;left=0;right=0;bottom=0;" parent="e5VDIKhWOAPWN4GaHjum-29" vertex="1">
                    <mxGeometry y="195" width="180" height="25" as="geometry"/>
                </mxCell>
                <mxCell id="RmAlr_m_3SbyFGguXEKS-20" value="" style="shape=partialRectangle;connectable=0;fillColor=none;top=0;left=0;bottom=0;right=0;editable=1;overflow=hidden;whiteSpace=wrap;html=1;" parent="RmAlr_m_3SbyFGguXEKS-19" vertex="1">
                    <mxGeometry width="29.999999999999886" height="25" as="geometry">
                        <mxRectangle width="29.999999999999886" height="25" as="alternateBounds"/>
                    </mxGeometry>
                </mxCell>
                <mxCell id="RmAlr_m_3SbyFGguXEKS-21" value="곱급량" style="shape=partialRectangle;connectable=0;fillColor=none;top=0;left=0;bottom=0;right=0;align=left;spacingLeft=6;overflow=hidden;whiteSpace=wrap;html=1;" parent="RmAlr_m_3SbyFGguXEKS-19" vertex="1">
                    <mxGeometry x="29.999999999999886" width="150.0000000000001" height="25" as="geometry">
                        <mxRectangle width="150.0000000000001" height="25" as="alternateBounds"/>
                    </mxGeometry>
                </mxCell>
            </root>
        </mxGraphModel>
    </diagram>
    <diagram id="q3wb8rHChoL8Lzq-XXiY" name="학사ERD">
        <mxGraphModel dx="1633" dy="768" grid="1" gridSize="10" guides="1" tooltips="1" connect="1" arrows="1" fold="1" page="1" pageScale="1" pageWidth="850" pageHeight="1100" math="0" shadow="0">
            <root>
                <mxCell id="0"/>
                <mxCell id="1" parent="0"/>
                <mxCell id="-W_oQbogW06hNfF3k6Eb-15" style="edgeStyle=none;html=1;exitX=1;exitY=0.5;exitDx=0;exitDy=0;entryX=0;entryY=0.5;entryDx=0;entryDy=0;endArrow=none;endFill=0;" parent="1" source="Xji429gqv_LqO8ELt7fQ-1" target="-W_oQbogW06hNfF3k6Eb-9" edge="1">
                    <mxGeometry relative="1" as="geometry"/>
                </mxCell>
                <mxCell id="86ORLesqegBMmrxA-quP-3" style="edgeStyle=none;html=1;entryX=0.5;entryY=0;entryDx=0;entryDy=0;endArrow=none;endFill=0;" parent="1" source="Xji429gqv_LqO8ELt7fQ-1" target="-W_oQbogW06hNfF3k6Eb-16" edge="1">
                    <mxGeometry relative="1" as="geometry"/>
                </mxCell>
                <mxCell id="Xji429gqv_LqO8ELt7fQ-1" value="학생" style="rounded=0;whiteSpace=wrap;html=1;" parent="1" vertex="1">
                    <mxGeometry x="550" y="180" width="120" height="60" as="geometry"/>
                </mxCell>
                <mxCell id="-W_oQbogW06hNfF3k6Eb-3" style="edgeStyle=none;html=1;exitX=1;exitY=0.5;exitDx=0;exitDy=0;entryX=0;entryY=0.5;entryDx=0;entryDy=0;endArrow=none;endFill=0;" parent="1" source="-W_oQbogW06hNfF3k6Eb-1" target="Xji429gqv_LqO8ELt7fQ-1" edge="1">
                    <mxGeometry relative="1" as="geometry"/>
                </mxCell>
                <mxCell id="-W_oQbogW06hNfF3k6Eb-1" value="&lt;u&gt;학번&lt;/u&gt;" style="ellipse;whiteSpace=wrap;html=1;" parent="1" vertex="1">
                    <mxGeometry x="360" y="70" width="120" height="80" as="geometry"/>
                </mxCell>
                <mxCell id="-W_oQbogW06hNfF3k6Eb-6" style="edgeStyle=none;html=1;endArrow=none;endFill=0;" parent="1" source="-W_oQbogW06hNfF3k6Eb-4" target="Xji429gqv_LqO8ELt7fQ-1" edge="1">
                    <mxGeometry relative="1" as="geometry"/>
                </mxCell>
                <mxCell id="-W_oQbogW06hNfF3k6Eb-4" value="이름" style="ellipse;whiteSpace=wrap;html=1;" parent="1" vertex="1">
                    <mxGeometry x="360" y="160" width="120" height="80" as="geometry"/>
                </mxCell>
                <mxCell id="-W_oQbogW06hNfF3k6Eb-7" style="edgeStyle=none;html=1;entryX=0;entryY=0.5;entryDx=0;entryDy=0;endArrow=none;endFill=0;" parent="1" source="-W_oQbogW06hNfF3k6Eb-5" target="Xji429gqv_LqO8ELt7fQ-1" edge="1">
                    <mxGeometry relative="1" as="geometry"/>
                </mxCell>
                <mxCell id="-W_oQbogW06hNfF3k6Eb-5" value="키" style="ellipse;whiteSpace=wrap;html=1;" parent="1" vertex="1">
                    <mxGeometry x="360" y="260" width="120" height="80" as="geometry"/>
                </mxCell>
                <mxCell id="-W_oQbogW06hNfF3k6Eb-14" style="edgeStyle=none;html=1;entryX=0;entryY=0.5;entryDx=0;entryDy=0;exitX=1;exitY=0.5;exitDx=0;exitDy=0;exitPerimeter=0;endArrow=none;endFill=0;" parent="1" source="-W_oQbogW06hNfF3k6Eb-9" target="-W_oQbogW06hNfF3k6Eb-11" edge="1">
                    <mxGeometry relative="1" as="geometry"/>
                </mxCell>
                <mxCell id="JIGoBHbEk-dJweX39ggh-6" value="" style="edgeStyle=none;html=1;endArrow=none;endFill=0;startArrow=none;startFill=0;" parent="1" source="-W_oQbogW06hNfF3k6Eb-9" target="JIGoBHbEk-dJweX39ggh-5" edge="1">
                    <mxGeometry relative="1" as="geometry"/>
                </mxCell>
                <mxCell id="JIGoBHbEk-dJweX39ggh-22" style="edgeStyle=none;html=1;entryX=0;entryY=0.5;entryDx=0;entryDy=0;exitX=1;exitY=0.5;exitDx=0;exitDy=0;endArrow=none;endFill=0;" parent="1" source="-W_oQbogW06hNfF3k6Eb-9" target="-W_oQbogW06hNfF3k6Eb-10" edge="1">
                    <mxGeometry relative="1" as="geometry"/>
                </mxCell>
                <mxCell id="-W_oQbogW06hNfF3k6Eb-9" value="학과" style="rounded=0;whiteSpace=wrap;html=1;" parent="1" vertex="1">
                    <mxGeometry x="1020" y="180" width="120" height="60" as="geometry"/>
                </mxCell>
                <mxCell id="-W_oQbogW06hNfF3k6Eb-10" value="&lt;u&gt;학과코드&lt;/u&gt;" style="ellipse;whiteSpace=wrap;html=1;" parent="1" vertex="1">
                    <mxGeometry x="1190" y="110" width="120" height="80" as="geometry"/>
                </mxCell>
                <mxCell id="-W_oQbogW06hNfF3k6Eb-11" value="학과명" style="ellipse;whiteSpace=wrap;html=1;" parent="1" vertex="1">
                    <mxGeometry x="1190" y="200" width="120" height="80" as="geometry"/>
                </mxCell>
                <mxCell id="-W_oQbogW06hNfF3k6Eb-8" value="소속" style="rhombus;whiteSpace=wrap;html=1;" parent="1" vertex="1">
                    <mxGeometry x="800" y="170" width="110" height="80" as="geometry"/>
                </mxCell>
                <mxCell id="86ORLesqegBMmrxA-quP-5" style="edgeStyle=none;html=1;entryX=0.5;entryY=0;entryDx=0;entryDy=0;endArrow=none;endFill=0;" parent="1" source="-W_oQbogW06hNfF3k6Eb-16" target="-W_oQbogW06hNfF3k6Eb-22" edge="1">
                    <mxGeometry relative="1" as="geometry"/>
                </mxCell>
                <mxCell id="-W_oQbogW06hNfF3k6Eb-16" value="수강" style="rhombus;whiteSpace=wrap;html=1;" parent="1" vertex="1">
                    <mxGeometry x="560" y="430" width="100" height="80" as="geometry"/>
                </mxCell>
                <mxCell id="-W_oQbogW06hNfF3k6Eb-17" value="&lt;u&gt;수강번호&lt;/u&gt;" style="ellipse;whiteSpace=wrap;html=1;" parent="1" vertex="1">
                    <mxGeometry x="710" y="380" width="120" height="80" as="geometry"/>
                </mxCell>
                <mxCell id="-W_oQbogW06hNfF3k6Eb-21" style="edgeStyle=none;html=1;entryX=1;entryY=0.5;entryDx=0;entryDy=0;exitX=0;exitY=0.5;exitDx=0;exitDy=0;endArrow=none;endFill=0;" parent="1" source="-W_oQbogW06hNfF3k6Eb-18" target="-W_oQbogW06hNfF3k6Eb-16" edge="1">
                    <mxGeometry relative="1" as="geometry">
                        <mxPoint x="710" y="520" as="sourcePoint"/>
                        <Array as="points"/>
                    </mxGeometry>
                </mxCell>
                <mxCell id="-W_oQbogW06hNfF3k6Eb-18" value="수강일자" style="ellipse;whiteSpace=wrap;html=1;" parent="1" vertex="1">
                    <mxGeometry x="710" y="470" width="120" height="80" as="geometry"/>
                </mxCell>
                <mxCell id="-W_oQbogW06hNfF3k6Eb-20" style="edgeStyle=none;html=1;exitX=1;exitY=0.5;exitDx=0;exitDy=0;entryX=0;entryY=0.5;entryDx=0;entryDy=0;endArrow=none;endFill=0;" parent="1" source="-W_oQbogW06hNfF3k6Eb-16" target="-W_oQbogW06hNfF3k6Eb-17" edge="1">
                    <mxGeometry relative="1" as="geometry">
                        <mxPoint x="660" y="470" as="sourcePoint"/>
                        <mxPoint x="690" y="430" as="targetPoint"/>
                    </mxGeometry>
                </mxCell>
                <mxCell id="86ORLesqegBMmrxA-quP-8" value="" style="edgeStyle=none;html=1;endArrow=none;endFill=0;" parent="1" source="-W_oQbogW06hNfF3k6Eb-22" target="86ORLesqegBMmrxA-quP-7" edge="1">
                    <mxGeometry relative="1" as="geometry"/>
                </mxCell>
                <mxCell id="-W_oQbogW06hNfF3k6Eb-22" value="과목" style="rounded=0;whiteSpace=wrap;html=1;" parent="1" vertex="1">
                    <mxGeometry x="550" y="650" width="120" height="60" as="geometry"/>
                </mxCell>
                <mxCell id="-W_oQbogW06hNfF3k6Eb-27" style="edgeStyle=none;html=1;entryX=0;entryY=0.5;entryDx=0;entryDy=0;exitX=1;exitY=0.5;exitDx=0;exitDy=0;endArrow=none;endFill=0;" parent="1" source="-W_oQbogW06hNfF3k6Eb-23" target="-W_oQbogW06hNfF3k6Eb-22" edge="1">
                    <mxGeometry relative="1" as="geometry"/>
                </mxCell>
                <mxCell id="-W_oQbogW06hNfF3k6Eb-23" value="시작일" style="ellipse;whiteSpace=wrap;html=1;" parent="1" vertex="1">
                    <mxGeometry x="180" y="540" width="120" height="80" as="geometry"/>
                </mxCell>
                <mxCell id="-W_oQbogW06hNfF3k6Eb-28" style="edgeStyle=none;html=1;entryX=0;entryY=0.5;entryDx=0;entryDy=0;endArrow=none;endFill=0;" parent="1" source="-W_oQbogW06hNfF3k6Eb-24" target="-W_oQbogW06hNfF3k6Eb-22" edge="1">
                    <mxGeometry relative="1" as="geometry"/>
                </mxCell>
                <mxCell id="-W_oQbogW06hNfF3k6Eb-24" value="종료일" style="ellipse;whiteSpace=wrap;html=1;" parent="1" vertex="1">
                    <mxGeometry x="180" y="640" width="120" height="80" as="geometry"/>
                </mxCell>
                <mxCell id="-W_oQbogW06hNfF3k6Eb-29" style="edgeStyle=none;html=1;entryX=0;entryY=0.5;entryDx=0;entryDy=0;exitX=1.01;exitY=0.398;exitDx=0;exitDy=0;exitPerimeter=0;endArrow=none;endFill=0;startArrow=none;startFill=0;" parent="1" source="-W_oQbogW06hNfF3k6Eb-25" target="-W_oQbogW06hNfF3k6Eb-22" edge="1">
                    <mxGeometry relative="1" as="geometry"/>
                </mxCell>
                <mxCell id="-W_oQbogW06hNfF3k6Eb-25" value="과목명" style="ellipse;whiteSpace=wrap;html=1;" parent="1" vertex="1">
                    <mxGeometry x="180" y="740" width="120" height="80" as="geometry"/>
                </mxCell>
                <mxCell id="-W_oQbogW06hNfF3k6Eb-30" style="edgeStyle=none;html=1;entryX=0;entryY=0.5;entryDx=0;entryDy=0;exitX=1;exitY=0.5;exitDx=0;exitDy=0;endArrow=none;endFill=0;" parent="1" source="-W_oQbogW06hNfF3k6Eb-26" target="-W_oQbogW06hNfF3k6Eb-22" edge="1">
                    <mxGeometry relative="1" as="geometry"/>
                </mxCell>
                <mxCell id="-W_oQbogW06hNfF3k6Eb-26" value="&lt;u&gt;과목코드&lt;/u&gt;" style="ellipse;whiteSpace=wrap;html=1;" parent="1" vertex="1">
                    <mxGeometry x="180" y="840" width="120" height="80" as="geometry"/>
                </mxCell>
                <mxCell id="JIGoBHbEk-dJweX39ggh-20" style="edgeStyle=none;html=1;entryX=0;entryY=0.5;entryDx=0;entryDy=0;endArrow=none;endFill=0;exitX=1;exitY=0.5;exitDx=0;exitDy=0;" parent="1" source="JIGoBHbEk-dJweX39ggh-3" target="JIGoBHbEk-dJweX39ggh-19" edge="1">
                    <mxGeometry relative="1" as="geometry"/>
                </mxCell>
                <mxCell id="CbgxPuLybLiUL0uCXHxZ-2" style="edgeStyle=none;html=1;exitX=1;exitY=0.5;exitDx=0;exitDy=0;entryX=0;entryY=0.5;entryDx=0;entryDy=0;endArrow=none;endFill=0;" edge="1" parent="1" source="JIGoBHbEk-dJweX39ggh-3" target="JIGoBHbEk-dJweX39ggh-10">
                    <mxGeometry relative="1" as="geometry"/>
                </mxCell>
                <mxCell id="JIGoBHbEk-dJweX39ggh-3" value="교수" style="rounded=0;whiteSpace=wrap;html=1;" parent="1" vertex="1">
                    <mxGeometry x="1020" y="660" width="120" height="60" as="geometry"/>
                </mxCell>
                <mxCell id="JIGoBHbEk-dJweX39ggh-9" style="edgeStyle=none;html=1;exitX=0.5;exitY=1;exitDx=0;exitDy=0;entryX=0.5;entryY=0;entryDx=0;entryDy=0;endArrow=none;endFill=0;" parent="1" source="JIGoBHbEk-dJweX39ggh-5" target="JIGoBHbEk-dJweX39ggh-3" edge="1">
                    <mxGeometry relative="1" as="geometry"/>
                </mxCell>
                <mxCell id="JIGoBHbEk-dJweX39ggh-5" value="소속" style="rhombus;whiteSpace=wrap;html=1;rounded=0;" parent="1" vertex="1">
                    <mxGeometry x="1040" y="390" width="80" height="80" as="geometry"/>
                </mxCell>
                <mxCell id="JIGoBHbEk-dJweX39ggh-10" value="&lt;u&gt;교수 코드&lt;/u&gt;" style="ellipse;whiteSpace=wrap;html=1;rounded=0;" parent="1" vertex="1">
                    <mxGeometry x="1200" y="600" width="80" height="60" as="geometry"/>
                </mxCell>
                <mxCell id="JIGoBHbEk-dJweX39ggh-19" value="교수명" style="ellipse;whiteSpace=wrap;html=1;" parent="1" vertex="1">
                    <mxGeometry x="1190" y="680" width="100" height="60" as="geometry"/>
                </mxCell>
                <mxCell id="86ORLesqegBMmrxA-quP-1" value="&lt;div style=&quot;text-align: right;&quot;&gt;&lt;span style=&quot;text-wrap-mode: nowrap;&quot;&gt;N&lt;/span&gt;&lt;/div&gt;" style="text;whiteSpace=wrap;html=1;" parent="1" vertex="1">
                    <mxGeometry x="680" y="170" width="40" height="40" as="geometry"/>
                </mxCell>
                <mxCell id="86ORLesqegBMmrxA-quP-2" value="M" style="text;whiteSpace=wrap;html=1;" parent="1" vertex="1">
                    <mxGeometry x="630" y="250" width="40" height="40" as="geometry"/>
                </mxCell>
                <mxCell id="86ORLesqegBMmrxA-quP-6" value="N" style="text;whiteSpace=wrap;html=1;" parent="1" vertex="1">
                    <mxGeometry x="620" y="600" width="40" height="40" as="geometry"/>
                </mxCell>
                <mxCell id="86ORLesqegBMmrxA-quP-7" value="강의" style="rhombus;whiteSpace=wrap;html=1;rounded=0;" parent="1" vertex="1">
                    <mxGeometry x="810" y="640" width="80" height="80" as="geometry"/>
                </mxCell>
                <mxCell id="86ORLesqegBMmrxA-quP-9" style="edgeStyle=none;html=1;entryX=-0.009;entryY=0.395;entryDx=0;entryDy=0;entryPerimeter=0;endArrow=none;endFill=0;" parent="1" source="86ORLesqegBMmrxA-quP-7" target="JIGoBHbEk-dJweX39ggh-3" edge="1">
                    <mxGeometry relative="1" as="geometry"/>
                </mxCell>
                <mxCell id="86ORLesqegBMmrxA-quP-10" value="N" style="text;whiteSpace=wrap;html=1;" parent="1" vertex="1">
                    <mxGeometry x="670" y="640" width="40" height="40" as="geometry"/>
                </mxCell>
                <mxCell id="86ORLesqegBMmrxA-quP-11" value="1" style="text;whiteSpace=wrap;html=1;" parent="1" vertex="1">
                    <mxGeometry x="970" y="640" width="40" height="40" as="geometry"/>
                </mxCell>
                <mxCell id="86ORLesqegBMmrxA-quP-12" value="N" style="text;whiteSpace=wrap;html=1;" parent="1" vertex="1">
                    <mxGeometry x="1030" y="610" width="40" height="40" as="geometry"/>
                </mxCell>
                <mxCell id="86ORLesqegBMmrxA-quP-13" value="1" style="text;whiteSpace=wrap;html=1;" parent="1" vertex="1">
                    <mxGeometry x="970" y="160" width="40" height="40" as="geometry"/>
                </mxCell>
                <mxCell id="86ORLesqegBMmrxA-quP-14" value="1" style="text;whiteSpace=wrap;html=1;" parent="1" vertex="1">
                    <mxGeometry x="1030" y="250" width="40" height="40" as="geometry"/>
                </mxCell>
            </root>
        </mxGraphModel>
    </diagram>
    <diagram id="FQBAjOg-aixyi3VvOs5R" name="학사릴레이션">
        <mxGraphModel dx="1306" dy="614" grid="1" gridSize="10" guides="1" tooltips="1" connect="1" arrows="1" fold="1" page="1" pageScale="1" pageWidth="850" pageHeight="1100" math="0" shadow="0">
            <root>
                <mxCell id="0"/>
                <mxCell id="1" parent="0"/>
                <mxCell id="6C64mICBqN4FWTCSbK4b-2" value="학생" style="shape=table;startSize=30;container=1;collapsible=1;childLayout=tableLayout;fixedRows=1;rowLines=0;fontStyle=1;align=center;resizeLast=1;html=1;whiteSpace=wrap;" parent="1" vertex="1">
                    <mxGeometry x="80" y="40" width="180" height="150" as="geometry"/>
                </mxCell>
                <mxCell id="6C64mICBqN4FWTCSbK4b-3" value="" style="shape=tableRow;horizontal=0;startSize=0;swimlaneHead=0;swimlaneBody=0;fillColor=none;collapsible=0;dropTarget=0;points=[[0,0.5],[1,0.5]];portConstraint=eastwest;top=0;left=0;right=0;bottom=0;html=1;" parent="6C64mICBqN4FWTCSbK4b-2" vertex="1">
                    <mxGeometry y="30" width="180" height="30" as="geometry"/>
                </mxCell>
                <mxCell id="6C64mICBqN4FWTCSbK4b-4" value="PK" style="shape=partialRectangle;connectable=0;fillColor=none;top=0;left=0;bottom=0;right=0;fontStyle=1;overflow=hidden;html=1;whiteSpace=wrap;" parent="6C64mICBqN4FWTCSbK4b-3" vertex="1">
                    <mxGeometry width="60" height="30" as="geometry">
                        <mxRectangle width="60" height="30" as="alternateBounds"/>
                    </mxGeometry>
                </mxCell>
                <mxCell id="6C64mICBqN4FWTCSbK4b-5" value="학번" style="shape=partialRectangle;connectable=0;fillColor=none;top=0;left=0;bottom=0;right=0;align=left;spacingLeft=6;fontStyle=5;overflow=hidden;html=1;whiteSpace=wrap;" parent="6C64mICBqN4FWTCSbK4b-3" vertex="1">
                    <mxGeometry x="60" width="120" height="30" as="geometry">
                        <mxRectangle width="120" height="30" as="alternateBounds"/>
                    </mxGeometry>
                </mxCell>
                <mxCell id="6C64mICBqN4FWTCSbK4b-6" value="" style="shape=tableRow;horizontal=0;startSize=0;swimlaneHead=0;swimlaneBody=0;fillColor=none;collapsible=0;dropTarget=0;points=[[0,0.5],[1,0.5]];portConstraint=eastwest;top=0;left=0;right=0;bottom=1;html=1;" parent="6C64mICBqN4FWTCSbK4b-2" vertex="1">
                    <mxGeometry y="60" width="180" height="30" as="geometry"/>
                </mxCell>
                <mxCell id="6C64mICBqN4FWTCSbK4b-7" value="FK" style="shape=partialRectangle;connectable=0;fillColor=none;top=0;left=0;bottom=0;right=0;fontStyle=1;overflow=hidden;html=1;whiteSpace=wrap;" parent="6C64mICBqN4FWTCSbK4b-6" vertex="1">
                    <mxGeometry width="60" height="30" as="geometry">
                        <mxRectangle width="60" height="30" as="alternateBounds"/>
                    </mxGeometry>
                </mxCell>
                <mxCell id="6C64mICBqN4FWTCSbK4b-8" value="학과코드" style="shape=partialRectangle;connectable=0;fillColor=none;top=0;left=0;bottom=0;right=0;align=left;spacingLeft=6;fontStyle=5;overflow=hidden;html=1;whiteSpace=wrap;" parent="6C64mICBqN4FWTCSbK4b-6" vertex="1">
                    <mxGeometry x="60" width="120" height="30" as="geometry">
                        <mxRectangle width="120" height="30" as="alternateBounds"/>
                    </mxGeometry>
                </mxCell>
                <mxCell id="6C64mICBqN4FWTCSbK4b-9" value="" style="shape=tableRow;horizontal=0;startSize=0;swimlaneHead=0;swimlaneBody=0;fillColor=none;collapsible=0;dropTarget=0;points=[[0,0.5],[1,0.5]];portConstraint=eastwest;top=0;left=0;right=0;bottom=0;html=1;" parent="6C64mICBqN4FWTCSbK4b-2" vertex="1">
                    <mxGeometry y="90" width="180" height="30" as="geometry"/>
                </mxCell>
                <mxCell id="6C64mICBqN4FWTCSbK4b-10" value="" style="shape=partialRectangle;connectable=0;fillColor=none;top=0;left=0;bottom=0;right=0;editable=1;overflow=hidden;html=1;whiteSpace=wrap;" parent="6C64mICBqN4FWTCSbK4b-9" vertex="1">
                    <mxGeometry width="60" height="30" as="geometry">
                        <mxRectangle width="60" height="30" as="alternateBounds"/>
                    </mxGeometry>
                </mxCell>
                <mxCell id="6C64mICBqN4FWTCSbK4b-11" value="이름" style="shape=partialRectangle;connectable=0;fillColor=none;top=0;left=0;bottom=0;right=0;align=left;spacingLeft=6;overflow=hidden;html=1;whiteSpace=wrap;" parent="6C64mICBqN4FWTCSbK4b-9" vertex="1">
                    <mxGeometry x="60" width="120" height="30" as="geometry">
                        <mxRectangle width="120" height="30" as="alternateBounds"/>
                    </mxGeometry>
                </mxCell>
                <mxCell id="6C64mICBqN4FWTCSbK4b-12" value="" style="shape=tableRow;horizontal=0;startSize=0;swimlaneHead=0;swimlaneBody=0;fillColor=none;collapsible=0;dropTarget=0;points=[[0,0.5],[1,0.5]];portConstraint=eastwest;top=0;left=0;right=0;bottom=0;html=1;" parent="6C64mICBqN4FWTCSbK4b-2" vertex="1">
                    <mxGeometry y="120" width="180" height="30" as="geometry"/>
                </mxCell>
                <mxCell id="6C64mICBqN4FWTCSbK4b-13" value="" style="shape=partialRectangle;connectable=0;fillColor=none;top=0;left=0;bottom=0;right=0;editable=1;overflow=hidden;html=1;whiteSpace=wrap;" parent="6C64mICBqN4FWTCSbK4b-12" vertex="1">
                    <mxGeometry width="60" height="30" as="geometry">
                        <mxRectangle width="60" height="30" as="alternateBounds"/>
                    </mxGeometry>
                </mxCell>
                <mxCell id="6C64mICBqN4FWTCSbK4b-14" value="키" style="shape=partialRectangle;connectable=0;fillColor=none;top=0;left=0;bottom=0;right=0;align=left;spacingLeft=6;overflow=hidden;html=1;whiteSpace=wrap;" parent="6C64mICBqN4FWTCSbK4b-12" vertex="1">
                    <mxGeometry x="60" width="120" height="30" as="geometry">
                        <mxRectangle width="120" height="30" as="alternateBounds"/>
                    </mxGeometry>
                </mxCell>
                <mxCell id="6C64mICBqN4FWTCSbK4b-15" value="학과" style="shape=table;startSize=30;container=1;collapsible=1;childLayout=tableLayout;fixedRows=1;rowLines=0;fontStyle=1;align=center;resizeLast=1;html=1;whiteSpace=wrap;" parent="1" vertex="1">
                    <mxGeometry x="780" y="70" width="180" height="90" as="geometry"/>
                </mxCell>
                <mxCell id="6C64mICBqN4FWTCSbK4b-16" value="" style="shape=tableRow;horizontal=0;startSize=0;swimlaneHead=0;swimlaneBody=0;fillColor=none;collapsible=0;dropTarget=0;points=[[0,0.5],[1,0.5]];portConstraint=eastwest;top=0;left=0;right=0;bottom=0;html=1;" parent="6C64mICBqN4FWTCSbK4b-15" vertex="1">
                    <mxGeometry y="30" width="180" height="30" as="geometry"/>
                </mxCell>
                <mxCell id="6C64mICBqN4FWTCSbK4b-17" value="PK" style="shape=partialRectangle;connectable=0;fillColor=none;top=0;left=0;bottom=0;right=0;fontStyle=1;overflow=hidden;html=1;whiteSpace=wrap;" parent="6C64mICBqN4FWTCSbK4b-16" vertex="1">
                    <mxGeometry width="60" height="30" as="geometry">
                        <mxRectangle width="60" height="30" as="alternateBounds"/>
                    </mxGeometry>
                </mxCell>
                <mxCell id="6C64mICBqN4FWTCSbK4b-18" value="학과코드" style="shape=partialRectangle;connectable=0;fillColor=none;top=0;left=0;bottom=0;right=0;align=left;spacingLeft=6;fontStyle=5;overflow=hidden;html=1;whiteSpace=wrap;" parent="6C64mICBqN4FWTCSbK4b-16" vertex="1">
                    <mxGeometry x="60" width="120" height="30" as="geometry">
                        <mxRectangle width="120" height="30" as="alternateBounds"/>
                    </mxGeometry>
                </mxCell>
                <mxCell id="-TphXfRnh2RqzH21tmIa-17" value="" style="shape=tableRow;horizontal=0;startSize=0;swimlaneHead=0;swimlaneBody=0;fillColor=none;collapsible=0;dropTarget=0;points=[[0,0.5],[1,0.5]];portConstraint=eastwest;top=0;left=0;right=0;bottom=0;html=1;" parent="6C64mICBqN4FWTCSbK4b-15" vertex="1">
                    <mxGeometry y="60" width="180" height="30" as="geometry"/>
                </mxCell>
                <mxCell id="-TphXfRnh2RqzH21tmIa-18" value="" style="shape=partialRectangle;connectable=0;fillColor=none;top=0;left=0;bottom=0;right=0;editable=1;overflow=hidden;html=1;whiteSpace=wrap;" parent="-TphXfRnh2RqzH21tmIa-17" vertex="1">
                    <mxGeometry width="60" height="30" as="geometry">
                        <mxRectangle width="60" height="30" as="alternateBounds"/>
                    </mxGeometry>
                </mxCell>
                <mxCell id="-TphXfRnh2RqzH21tmIa-19" value="학과명" style="shape=partialRectangle;connectable=0;fillColor=none;top=0;left=0;bottom=0;right=0;align=left;spacingLeft=6;overflow=hidden;html=1;whiteSpace=wrap;" parent="-TphXfRnh2RqzH21tmIa-17" vertex="1">
                    <mxGeometry x="60" width="120" height="30" as="geometry">
                        <mxRectangle width="120" height="30" as="alternateBounds"/>
                    </mxGeometry>
                </mxCell>
                <mxCell id="t636EWmCwe9b1SgzGRnc-1" value="교수" style="shape=table;startSize=30;container=1;collapsible=1;childLayout=tableLayout;fixedRows=1;rowLines=0;fontStyle=1;align=center;resizeLast=1;html=1;whiteSpace=wrap;" parent="1" vertex="1">
                    <mxGeometry x="790" y="380" width="180" height="120" as="geometry"/>
                </mxCell>
                <mxCell id="t636EWmCwe9b1SgzGRnc-2" value="" style="shape=tableRow;horizontal=0;startSize=0;swimlaneHead=0;swimlaneBody=0;fillColor=none;collapsible=0;dropTarget=0;points=[[0,0.5],[1,0.5]];portConstraint=eastwest;top=0;left=0;right=0;bottom=0;html=1;" parent="t636EWmCwe9b1SgzGRnc-1" vertex="1">
                    <mxGeometry y="30" width="180" height="30" as="geometry"/>
                </mxCell>
                <mxCell id="t636EWmCwe9b1SgzGRnc-3" value="PK" style="shape=partialRectangle;connectable=0;fillColor=none;top=0;left=0;bottom=0;right=0;fontStyle=1;overflow=hidden;html=1;whiteSpace=wrap;" parent="t636EWmCwe9b1SgzGRnc-2" vertex="1">
                    <mxGeometry width="60" height="30" as="geometry">
                        <mxRectangle width="60" height="30" as="alternateBounds"/>
                    </mxGeometry>
                </mxCell>
                <mxCell id="t636EWmCwe9b1SgzGRnc-4" value="교수코드" style="shape=partialRectangle;connectable=0;fillColor=none;top=0;left=0;bottom=0;right=0;align=left;spacingLeft=6;fontStyle=5;overflow=hidden;html=1;whiteSpace=wrap;" parent="t636EWmCwe9b1SgzGRnc-2" vertex="1">
                    <mxGeometry x="60" width="120" height="30" as="geometry">
                        <mxRectangle width="120" height="30" as="alternateBounds"/>
                    </mxGeometry>
                </mxCell>
                <mxCell id="t636EWmCwe9b1SgzGRnc-5" value="" style="shape=tableRow;horizontal=0;startSize=0;swimlaneHead=0;swimlaneBody=0;fillColor=none;collapsible=0;dropTarget=0;points=[[0,0.5],[1,0.5]];portConstraint=eastwest;top=0;left=0;right=0;bottom=1;html=1;" parent="t636EWmCwe9b1SgzGRnc-1" vertex="1">
                    <mxGeometry y="60" width="180" height="30" as="geometry"/>
                </mxCell>
                <mxCell id="t636EWmCwe9b1SgzGRnc-6" value="FK" style="shape=partialRectangle;connectable=0;fillColor=none;top=0;left=0;bottom=0;right=0;fontStyle=1;overflow=hidden;html=1;whiteSpace=wrap;" parent="t636EWmCwe9b1SgzGRnc-5" vertex="1">
                    <mxGeometry width="60" height="30" as="geometry">
                        <mxRectangle width="60" height="30" as="alternateBounds"/>
                    </mxGeometry>
                </mxCell>
                <mxCell id="t636EWmCwe9b1SgzGRnc-7" value="학과코드" style="shape=partialRectangle;connectable=0;fillColor=none;top=0;left=0;bottom=0;right=0;align=left;spacingLeft=6;fontStyle=5;overflow=hidden;html=1;whiteSpace=wrap;" parent="t636EWmCwe9b1SgzGRnc-5" vertex="1">
                    <mxGeometry x="60" width="120" height="30" as="geometry">
                        <mxRectangle width="120" height="30" as="alternateBounds"/>
                    </mxGeometry>
                </mxCell>
                <mxCell id="t636EWmCwe9b1SgzGRnc-8" value="" style="shape=tableRow;horizontal=0;startSize=0;swimlaneHead=0;swimlaneBody=0;fillColor=none;collapsible=0;dropTarget=0;points=[[0,0.5],[1,0.5]];portConstraint=eastwest;top=0;left=0;right=0;bottom=0;html=1;" parent="t636EWmCwe9b1SgzGRnc-1" vertex="1">
                    <mxGeometry y="90" width="180" height="30" as="geometry"/>
                </mxCell>
                <mxCell id="t636EWmCwe9b1SgzGRnc-9" value="" style="shape=partialRectangle;connectable=0;fillColor=none;top=0;left=0;bottom=0;right=0;editable=1;overflow=hidden;html=1;whiteSpace=wrap;" parent="t636EWmCwe9b1SgzGRnc-8" vertex="1">
                    <mxGeometry width="60" height="30" as="geometry">
                        <mxRectangle width="60" height="30" as="alternateBounds"/>
                    </mxGeometry>
                </mxCell>
                <mxCell id="t636EWmCwe9b1SgzGRnc-10" value="교수명" style="shape=partialRectangle;connectable=0;fillColor=none;top=0;left=0;bottom=0;right=0;align=left;spacingLeft=6;overflow=hidden;html=1;whiteSpace=wrap;" parent="t636EWmCwe9b1SgzGRnc-8" vertex="1">
                    <mxGeometry x="60" width="120" height="30" as="geometry">
                        <mxRectangle width="120" height="30" as="alternateBounds"/>
                    </mxGeometry>
                </mxCell>
                <mxCell id="t636EWmCwe9b1SgzGRnc-14" value="수강" style="shape=table;startSize=30;container=1;collapsible=1;childLayout=tableLayout;fixedRows=1;rowLines=0;fontStyle=1;align=center;resizeLast=1;html=1;whiteSpace=wrap;" parent="1" vertex="1">
                    <mxGeometry x="460" y="180" width="180" height="180" as="geometry"/>
                </mxCell>
                <mxCell id="t636EWmCwe9b1SgzGRnc-15" value="" style="shape=tableRow;horizontal=0;startSize=0;swimlaneHead=0;swimlaneBody=0;fillColor=none;collapsible=0;dropTarget=0;points=[[0,0.5],[1,0.5]];portConstraint=eastwest;top=0;left=0;right=0;bottom=0;html=1;" parent="t636EWmCwe9b1SgzGRnc-14" vertex="1">
                    <mxGeometry y="30" width="180" height="30" as="geometry"/>
                </mxCell>
                <mxCell id="t636EWmCwe9b1SgzGRnc-16" value="PK" style="shape=partialRectangle;connectable=0;fillColor=none;top=0;left=0;bottom=0;right=0;fontStyle=1;overflow=hidden;html=1;whiteSpace=wrap;" parent="t636EWmCwe9b1SgzGRnc-15" vertex="1">
                    <mxGeometry width="60" height="30" as="geometry">
                        <mxRectangle width="60" height="30" as="alternateBounds"/>
                    </mxGeometry>
                </mxCell>
                <mxCell id="t636EWmCwe9b1SgzGRnc-17" value="수강번호" style="shape=partialRectangle;connectable=0;fillColor=none;top=0;left=0;bottom=0;right=0;align=left;spacingLeft=6;fontStyle=5;overflow=hidden;html=1;whiteSpace=wrap;" parent="t636EWmCwe9b1SgzGRnc-15" vertex="1">
                    <mxGeometry x="60" width="120" height="30" as="geometry">
                        <mxRectangle width="120" height="30" as="alternateBounds"/>
                    </mxGeometry>
                </mxCell>
                <mxCell id="t636EWmCwe9b1SgzGRnc-18" value="" style="shape=tableRow;horizontal=0;startSize=0;swimlaneHead=0;swimlaneBody=0;fillColor=none;collapsible=0;dropTarget=0;points=[[0,0.5],[1,0.5]];portConstraint=eastwest;top=0;left=0;right=0;bottom=1;html=1;" parent="t636EWmCwe9b1SgzGRnc-14" vertex="1">
                    <mxGeometry y="60" width="180" height="30" as="geometry"/>
                </mxCell>
                <mxCell id="t636EWmCwe9b1SgzGRnc-19" value="FK" style="shape=partialRectangle;connectable=0;fillColor=none;top=0;left=0;bottom=0;right=0;fontStyle=1;overflow=hidden;html=1;whiteSpace=wrap;" parent="t636EWmCwe9b1SgzGRnc-18" vertex="1">
                    <mxGeometry width="60" height="30" as="geometry">
                        <mxRectangle width="60" height="30" as="alternateBounds"/>
                    </mxGeometry>
                </mxCell>
                <mxCell id="t636EWmCwe9b1SgzGRnc-20" value="학생코드" style="shape=partialRectangle;connectable=0;fillColor=none;top=0;left=0;bottom=0;right=0;align=left;spacingLeft=6;fontStyle=5;overflow=hidden;html=1;whiteSpace=wrap;" parent="t636EWmCwe9b1SgzGRnc-18" vertex="1">
                    <mxGeometry x="60" width="120" height="30" as="geometry">
                        <mxRectangle width="120" height="30" as="alternateBounds"/>
                    </mxGeometry>
                </mxCell>
                <mxCell id="v1cBFvmA_EWb0D08lhs_-1" value="" style="shape=tableRow;horizontal=0;startSize=0;swimlaneHead=0;swimlaneBody=0;fillColor=none;collapsible=0;dropTarget=0;points=[[0,0.5],[1,0.5]];portConstraint=eastwest;top=0;left=0;right=0;bottom=1;html=1;" parent="t636EWmCwe9b1SgzGRnc-14" vertex="1">
                    <mxGeometry y="90" width="180" height="30" as="geometry"/>
                </mxCell>
                <mxCell id="v1cBFvmA_EWb0D08lhs_-2" value="FK" style="shape=partialRectangle;connectable=0;fillColor=none;top=0;left=0;bottom=0;right=0;fontStyle=1;overflow=hidden;html=1;whiteSpace=wrap;" parent="v1cBFvmA_EWb0D08lhs_-1" vertex="1">
                    <mxGeometry width="60" height="30" as="geometry">
                        <mxRectangle width="60" height="30" as="alternateBounds"/>
                    </mxGeometry>
                </mxCell>
                <mxCell id="v1cBFvmA_EWb0D08lhs_-3" value="과목코드" style="shape=partialRectangle;connectable=0;fillColor=none;top=0;left=0;bottom=0;right=0;align=left;spacingLeft=6;fontStyle=5;overflow=hidden;html=1;whiteSpace=wrap;" parent="v1cBFvmA_EWb0D08lhs_-1" vertex="1">
                    <mxGeometry x="60" width="120" height="30" as="geometry">
                        <mxRectangle width="120" height="30" as="alternateBounds"/>
                    </mxGeometry>
                </mxCell>
                <mxCell id="t636EWmCwe9b1SgzGRnc-21" value="" style="shape=tableRow;horizontal=0;startSize=0;swimlaneHead=0;swimlaneBody=0;fillColor=none;collapsible=0;dropTarget=0;points=[[0,0.5],[1,0.5]];portConstraint=eastwest;top=0;left=0;right=0;bottom=0;html=1;" parent="t636EWmCwe9b1SgzGRnc-14" vertex="1">
                    <mxGeometry y="120" width="180" height="30" as="geometry"/>
                </mxCell>
                <mxCell id="t636EWmCwe9b1SgzGRnc-22" value="" style="shape=partialRectangle;connectable=0;fillColor=none;top=0;left=0;bottom=0;right=0;editable=1;overflow=hidden;html=1;whiteSpace=wrap;" parent="t636EWmCwe9b1SgzGRnc-21" vertex="1">
                    <mxGeometry width="60" height="30" as="geometry">
                        <mxRectangle width="60" height="30" as="alternateBounds"/>
                    </mxGeometry>
                </mxCell>
                <mxCell id="t636EWmCwe9b1SgzGRnc-23" value="수강일자" style="shape=partialRectangle;connectable=0;fillColor=none;top=0;left=0;bottom=0;right=0;align=left;spacingLeft=6;overflow=hidden;html=1;whiteSpace=wrap;" parent="t636EWmCwe9b1SgzGRnc-21" vertex="1">
                    <mxGeometry x="60" width="120" height="30" as="geometry">
                        <mxRectangle width="120" height="30" as="alternateBounds"/>
                    </mxGeometry>
                </mxCell>
                <mxCell id="t636EWmCwe9b1SgzGRnc-24" value="" style="shape=tableRow;horizontal=0;startSize=0;swimlaneHead=0;swimlaneBody=0;fillColor=none;collapsible=0;dropTarget=0;points=[[0,0.5],[1,0.5]];portConstraint=eastwest;top=0;left=0;right=0;bottom=0;html=1;" parent="t636EWmCwe9b1SgzGRnc-14" vertex="1">
                    <mxGeometry y="150" width="180" height="30" as="geometry"/>
                </mxCell>
                <mxCell id="t636EWmCwe9b1SgzGRnc-25" value="" style="shape=partialRectangle;connectable=0;fillColor=none;top=0;left=0;bottom=0;right=0;editable=1;overflow=hidden;html=1;whiteSpace=wrap;" parent="t636EWmCwe9b1SgzGRnc-24" vertex="1">
                    <mxGeometry width="60" height="30" as="geometry">
                        <mxRectangle width="60" height="30" as="alternateBounds"/>
                    </mxGeometry>
                </mxCell>
                <mxCell id="t636EWmCwe9b1SgzGRnc-26" value="학점" style="shape=partialRectangle;connectable=0;fillColor=none;top=0;left=0;bottom=0;right=0;align=left;spacingLeft=6;overflow=hidden;html=1;whiteSpace=wrap;" parent="t636EWmCwe9b1SgzGRnc-24" vertex="1">
                    <mxGeometry x="60" width="120" height="30" as="geometry">
                        <mxRectangle width="120" height="30" as="alternateBounds"/>
                    </mxGeometry>
                </mxCell>
                <mxCell id="-TphXfRnh2RqzH21tmIa-1" value="과목" style="shape=table;startSize=30;container=1;collapsible=1;childLayout=tableLayout;fixedRows=1;rowLines=0;fontStyle=1;align=center;resizeLast=1;html=1;whiteSpace=wrap;" parent="1" vertex="1">
                    <mxGeometry x="70" y="350" width="180" height="180" as="geometry"/>
                </mxCell>
                <mxCell id="-TphXfRnh2RqzH21tmIa-2" value="" style="shape=tableRow;horizontal=0;startSize=0;swimlaneHead=0;swimlaneBody=0;fillColor=none;collapsible=0;dropTarget=0;points=[[0,0.5],[1,0.5]];portConstraint=eastwest;top=0;left=0;right=0;bottom=0;html=1;" parent="-TphXfRnh2RqzH21tmIa-1" vertex="1">
                    <mxGeometry y="30" width="180" height="30" as="geometry"/>
                </mxCell>
                <mxCell id="-TphXfRnh2RqzH21tmIa-3" value="PK" style="shape=partialRectangle;connectable=0;fillColor=none;top=0;left=0;bottom=0;right=0;fontStyle=1;overflow=hidden;html=1;whiteSpace=wrap;" parent="-TphXfRnh2RqzH21tmIa-2" vertex="1">
                    <mxGeometry width="60" height="30" as="geometry">
                        <mxRectangle width="60" height="30" as="alternateBounds"/>
                    </mxGeometry>
                </mxCell>
                <mxCell id="-TphXfRnh2RqzH21tmIa-4" value="교수코드" style="shape=partialRectangle;connectable=0;fillColor=none;top=0;left=0;bottom=0;right=0;align=left;spacingLeft=6;fontStyle=5;overflow=hidden;html=1;whiteSpace=wrap;" parent="-TphXfRnh2RqzH21tmIa-2" vertex="1">
                    <mxGeometry x="60" width="120" height="30" as="geometry">
                        <mxRectangle width="120" height="30" as="alternateBounds"/>
                    </mxGeometry>
                </mxCell>
                <mxCell id="-TphXfRnh2RqzH21tmIa-5" value="" style="shape=tableRow;horizontal=0;startSize=0;swimlaneHead=0;swimlaneBody=0;fillColor=none;collapsible=0;dropTarget=0;points=[[0,0.5],[1,0.5]];portConstraint=eastwest;top=0;left=0;right=0;bottom=1;html=1;" parent="-TphXfRnh2RqzH21tmIa-1" vertex="1">
                    <mxGeometry y="60" width="180" height="30" as="geometry"/>
                </mxCell>
                <mxCell id="-TphXfRnh2RqzH21tmIa-6" value="FK" style="shape=partialRectangle;connectable=0;fillColor=none;top=0;left=0;bottom=0;right=0;fontStyle=1;overflow=hidden;html=1;whiteSpace=wrap;" parent="-TphXfRnh2RqzH21tmIa-5" vertex="1">
                    <mxGeometry width="60" height="30" as="geometry">
                        <mxRectangle width="60" height="30" as="alternateBounds"/>
                    </mxGeometry>
                </mxCell>
                <mxCell id="-TphXfRnh2RqzH21tmIa-7" value="교수코드" style="shape=partialRectangle;connectable=0;fillColor=none;top=0;left=0;bottom=0;right=0;align=left;spacingLeft=6;fontStyle=5;overflow=hidden;html=1;whiteSpace=wrap;" parent="-TphXfRnh2RqzH21tmIa-5" vertex="1">
                    <mxGeometry x="60" width="120" height="30" as="geometry">
                        <mxRectangle width="120" height="30" as="alternateBounds"/>
                    </mxGeometry>
                </mxCell>
                <mxCell id="-TphXfRnh2RqzH21tmIa-8" value="" style="shape=tableRow;horizontal=0;startSize=0;swimlaneHead=0;swimlaneBody=0;fillColor=none;collapsible=0;dropTarget=0;points=[[0,0.5],[1,0.5]];portConstraint=eastwest;top=0;left=0;right=0;bottom=0;html=1;" parent="-TphXfRnh2RqzH21tmIa-1" vertex="1">
                    <mxGeometry y="90" width="180" height="30" as="geometry"/>
                </mxCell>
                <mxCell id="-TphXfRnh2RqzH21tmIa-9" value="" style="shape=partialRectangle;connectable=0;fillColor=none;top=0;left=0;bottom=0;right=0;editable=1;overflow=hidden;html=1;whiteSpace=wrap;" parent="-TphXfRnh2RqzH21tmIa-8" vertex="1">
                    <mxGeometry width="60" height="30" as="geometry">
                        <mxRectangle width="60" height="30" as="alternateBounds"/>
                    </mxGeometry>
                </mxCell>
                <mxCell id="-TphXfRnh2RqzH21tmIa-10" value="과목명" style="shape=partialRectangle;connectable=0;fillColor=none;top=0;left=0;bottom=0;right=0;align=left;spacingLeft=6;overflow=hidden;html=1;whiteSpace=wrap;" parent="-TphXfRnh2RqzH21tmIa-8" vertex="1">
                    <mxGeometry x="60" width="120" height="30" as="geometry">
                        <mxRectangle width="120" height="30" as="alternateBounds"/>
                    </mxGeometry>
                </mxCell>
                <mxCell id="-TphXfRnh2RqzH21tmIa-11" value="" style="shape=tableRow;horizontal=0;startSize=0;swimlaneHead=0;swimlaneBody=0;fillColor=none;collapsible=0;dropTarget=0;points=[[0,0.5],[1,0.5]];portConstraint=eastwest;top=0;left=0;right=0;bottom=0;html=1;" parent="-TphXfRnh2RqzH21tmIa-1" vertex="1">
                    <mxGeometry y="120" width="180" height="30" as="geometry"/>
                </mxCell>
                <mxCell id="-TphXfRnh2RqzH21tmIa-12" value="" style="shape=partialRectangle;connectable=0;fillColor=none;top=0;left=0;bottom=0;right=0;editable=1;overflow=hidden;html=1;whiteSpace=wrap;" parent="-TphXfRnh2RqzH21tmIa-11" vertex="1">
                    <mxGeometry width="60" height="30" as="geometry">
                        <mxRectangle width="60" height="30" as="alternateBounds"/>
                    </mxGeometry>
                </mxCell>
                <mxCell id="-TphXfRnh2RqzH21tmIa-13" value="시작일" style="shape=partialRectangle;connectable=0;fillColor=none;top=0;left=0;bottom=0;right=0;align=left;spacingLeft=6;overflow=hidden;html=1;whiteSpace=wrap;" parent="-TphXfRnh2RqzH21tmIa-11" vertex="1">
                    <mxGeometry x="60" width="120" height="30" as="geometry">
                        <mxRectangle width="120" height="30" as="alternateBounds"/>
                    </mxGeometry>
                </mxCell>
                <mxCell id="-TphXfRnh2RqzH21tmIa-14" value="" style="shape=tableRow;horizontal=0;startSize=0;swimlaneHead=0;swimlaneBody=0;fillColor=none;collapsible=0;dropTarget=0;points=[[0,0.5],[1,0.5]];portConstraint=eastwest;top=0;left=0;right=0;bottom=0;html=1;" parent="-TphXfRnh2RqzH21tmIa-1" vertex="1">
                    <mxGeometry y="150" width="180" height="30" as="geometry"/>
                </mxCell>
                <mxCell id="-TphXfRnh2RqzH21tmIa-15" value="" style="shape=partialRectangle;connectable=0;fillColor=none;top=0;left=0;bottom=0;right=0;editable=1;overflow=hidden;html=1;whiteSpace=wrap;" parent="-TphXfRnh2RqzH21tmIa-14" vertex="1">
                    <mxGeometry width="60" height="30" as="geometry">
                        <mxRectangle width="60" height="30" as="alternateBounds"/>
                    </mxGeometry>
                </mxCell>
                <mxCell id="-TphXfRnh2RqzH21tmIa-16" value="종료일" style="shape=partialRectangle;connectable=0;fillColor=none;top=0;left=0;bottom=0;right=0;align=left;spacingLeft=6;overflow=hidden;html=1;whiteSpace=wrap;" parent="-TphXfRnh2RqzH21tmIa-14" vertex="1">
                    <mxGeometry x="60" width="120" height="30" as="geometry">
                        <mxRectangle width="120" height="30" as="alternateBounds"/>
                    </mxGeometry>
                </mxCell>
                <mxCell id="v1cBFvmA_EWb0D08lhs_-5" value="" style="edgeStyle=entityRelationEdgeStyle;fontSize=12;html=1;endArrow=ERoneToMany;exitX=0;exitY=0.5;exitDx=0;exitDy=0;entryX=1;entryY=0.5;entryDx=0;entryDy=0;" parent="1" source="6C64mICBqN4FWTCSbK4b-16" target="6C64mICBqN4FWTCSbK4b-6" edge="1">
                    <mxGeometry width="100" height="100" relative="1" as="geometry">
                        <mxPoint x="370" y="320" as="sourcePoint"/>
                        <mxPoint x="470" y="220" as="targetPoint"/>
                    </mxGeometry>
                </mxCell>
                <mxCell id="v1cBFvmA_EWb0D08lhs_-6" value="" style="edgeStyle=entityRelationEdgeStyle;fontSize=12;html=1;endArrow=ERoneToMany;exitX=0;exitY=0.5;exitDx=0;exitDy=0;entryX=1;entryY=0.5;entryDx=0;entryDy=0;" parent="1" source="t636EWmCwe9b1SgzGRnc-5" target="-TphXfRnh2RqzH21tmIa-8" edge="1">
                    <mxGeometry width="100" height="100" relative="1" as="geometry">
                        <mxPoint x="770" y="520" as="sourcePoint"/>
                        <mxPoint x="290" y="520" as="targetPoint"/>
                        <Array as="points">
                            <mxPoint x="280" y="420"/>
                            <mxPoint x="720" y="400"/>
                            <mxPoint x="280" y="410"/>
                        </Array>
                    </mxGeometry>
                </mxCell>
                <mxCell id="v1cBFvmA_EWb0D08lhs_-8" value="" style="edgeStyle=entityRelationEdgeStyle;fontSize=12;html=1;endArrow=ERmany;startArrow=ERmany;entryX=1;entryY=0.5;entryDx=0;entryDy=0;exitX=0;exitY=0.5;exitDx=0;exitDy=0;" parent="1" source="t636EWmCwe9b1SgzGRnc-18" target="6C64mICBqN4FWTCSbK4b-9" edge="1">
                    <mxGeometry width="100" height="100" relative="1" as="geometry">
                        <mxPoint x="450" y="290" as="sourcePoint"/>
                        <mxPoint x="550" y="190" as="targetPoint"/>
                    </mxGeometry>
                </mxCell>
                <mxCell id="v1cBFvmA_EWb0D08lhs_-9" value="" style="edgeStyle=entityRelationEdgeStyle;fontSize=12;html=1;endArrow=ERmany;startArrow=ERmany;entryX=0;entryY=0.5;entryDx=0;entryDy=0;exitX=1;exitY=0.5;exitDx=0;exitDy=0;" parent="1" source="-TphXfRnh2RqzH21tmIa-5" target="v1cBFvmA_EWb0D08lhs_-1" edge="1">
                    <mxGeometry width="100" height="100" relative="1" as="geometry">
                        <mxPoint x="450" y="440" as="sourcePoint"/>
                        <mxPoint x="300" y="330" as="targetPoint"/>
                    </mxGeometry>
                </mxCell>
                <mxCell id="v1cBFvmA_EWb0D08lhs_-10" value="" style="edgeStyle=entityRelationEdgeStyle;fontSize=12;html=1;endArrow=ERoneToMany;exitX=1;exitY=0.5;exitDx=0;exitDy=0;entryX=1;entryY=0.5;entryDx=0;entryDy=0;" parent="1" source="6C64mICBqN4FWTCSbK4b-16" target="t636EWmCwe9b1SgzGRnc-5" edge="1">
                    <mxGeometry width="100" height="100" relative="1" as="geometry">
                        <mxPoint x="1030.7199999999998" y="131.67999999999995" as="sourcePoint"/>
                        <mxPoint x="1040" y="455" as="targetPoint"/>
                        <Array as="points">
                            <mxPoint x="1030" y="450"/>
                            <mxPoint x="1210" y="230"/>
                            <mxPoint x="1040" y="160"/>
                            <mxPoint x="1040" y="420"/>
                            <mxPoint x="1030" y="430"/>
                            <mxPoint x="1040" y="300"/>
                            <mxPoint x="1010" y="460"/>
                            <mxPoint x="1060" y="440"/>
                            <mxPoint x="1100" y="450"/>
                        </Array>
                    </mxGeometry>
                </mxCell>
            </root>
        </mxGraphModel>
    </diagram>
</mxfile>